<?xml version="1.0" encoding="UTF-8" standalone="no"?><svg xmlns="http://www.w3.org/2000/svg" xmlns:xlink="http://www.w3.org/1999/xlink" contentStyleType="text/css" height="484px" preserveAspectRatio="none" style="width:4366px;height:484px;background:#FFFFFF;" version="1.1" viewBox="0 0 4366 484" width="4366px" zoomAndPan="magnify"><defs/><g><!--MD5=[251bd014ccdc6af4c0ec3da56bcf8e95]
cluster flutter_complete_guide::main.dart--><g id="cluster_flutter_complete_guide::main.dart"><path d="M8.5,182.5 L246.5,182.5 A3.75,3.75 0 0 1 249,185 L256,206.1094 L256.5,206.1094 A2.5,2.5 0 0 1 259,208.6094 L259,298 A2.5,2.5 0 0 1 256.5,300.5 L8.5,300.5 A2.5,2.5 0 0 1 6,298 L6,185 A2.5,2.5 0 0 1 8.5,182.5 " fill="none" style="stroke:#000000;stroke-width:1.5;"/><line style="stroke:#000000;stroke-width:1.5;" x1="6" x2="256" y1="206.1094" y2="206.1094"/><text fill="#000000" font-family="sans-serif" font-size="14" font-weight="bold" lengthAdjust="spacing" textLength="237" x="10" y="199.0332">flutter_complete_guide::main.dart</text></g><!--MD5=[1b91236ccc4e258431d00b8b19fdf6ca]
cluster flutter::src::widgets::framework.dart--><g id="cluster_flutter::src::widgets::framework.dart"><path d="M1314.5,6 L1565.5,6 A3.75,3.75 0 0 1 1568,8.5 L1575,29.6094 L1846.5,29.6094 A2.5,2.5 0 0 1 1849,32.1094 L1849,103.5 A2.5,2.5 0 0 1 1846.5,106 L1314.5,106 A2.5,2.5 0 0 1 1312,103.5 L1312,8.5 A2.5,2.5 0 0 1 1314.5,6 " fill="none" style="stroke:#000000;stroke-width:1.5;"/><line style="stroke:#000000;stroke-width:1.5;" x1="1312" x2="1575" y1="29.6094" y2="29.6094"/><text fill="#000000" font-family="sans-serif" font-size="14" font-weight="bold" lengthAdjust="spacing" textLength="250" x="1316" y="22.5332">flutter::src::widgets::framework.dart</text></g><!--MD5=[e730d5d89e3389b6d8198fe899722791]
cluster flutter_complete_guide::providers::cart.dart--><g id="cluster_flutter_complete_guide::providers::cart.dart"><path d="M3197.5,147.5 L3506.5,147.5 A3.75,3.75 0 0 1 3509,150 L3516,171.1094 L3596.5,171.1094 A2.5,2.5 0 0 1 3599,173.6094 L3599,333 A2.5,2.5 0 0 1 3596.5,335.5 L3197.5,335.5 A2.5,2.5 0 0 1 3195,333 L3195,150 A2.5,2.5 0 0 1 3197.5,147.5 " fill="none" style="stroke:#000000;stroke-width:1.5;"/><line style="stroke:#000000;stroke-width:1.5;" x1="3195" x2="3516" y1="171.1094" y2="171.1094"/><text fill="#000000" font-family="sans-serif" font-size="14" font-weight="bold" lengthAdjust="spacing" textLength="308" x="3199" y="164.0332">flutter_complete_guide::providers::cart.dart</text></g><!--MD5=[11a7ffd249e6e4068679c7dd6695b3c6]
cluster flutter::src::foundation::change_notifier.dart--><g id="cluster_flutter::src::foundation::change_notifier.dart"><path d="M3639.5,6 L3948.5,6 A3.75,3.75 0 0 1 3951,8.5 L3958,29.6094 L3958.5,29.6094 A2.5,2.5 0 0 1 3961,32.1094 L3961,103.5 A2.5,2.5 0 0 1 3958.5,106 L3639.5,106 A2.5,2.5 0 0 1 3637,103.5 L3637,8.5 A2.5,2.5 0 0 1 3639.5,6 " fill="none" style="stroke:#000000;stroke-width:1.5;"/><line style="stroke:#000000;stroke-width:1.5;" x1="3637" x2="3958" y1="29.6094" y2="29.6094"/><text fill="#000000" font-family="sans-serif" font-size="14" font-weight="bold" lengthAdjust="spacing" textLength="308" x="3641" y="22.5332">flutter::src::foundation::change_notifier.dart</text></g><!--MD5=[eee8484378e4ab59e9bb476d6935c13a]
cluster flutter_complete_guide::providers::product.dart--><g id="cluster_flutter_complete_guide::providers::product.dart"><path d="M3625.5,130 L3962.5,130 A3.75,3.75 0 0 1 3965,132.5 L3972,153.6094 L3972.5,153.6094 A2.5,2.5 0 0 1 3975,156.1094 L3975,350.5 A2.5,2.5 0 0 1 3972.5,353 L3625.5,353 A2.5,2.5 0 0 1 3623,350.5 L3623,132.5 A2.5,2.5 0 0 1 3625.5,130 " fill="none" style="stroke:#000000;stroke-width:1.5;"/><line style="stroke:#000000;stroke-width:1.5;" x1="3623" x2="3972" y1="153.6094" y2="153.6094"/><text fill="#000000" font-family="sans-serif" font-size="14" font-weight="bold" lengthAdjust="spacing" textLength="336" x="3627" y="146.5332">flutter_complete_guide::providers::product.dart</text></g><!--MD5=[68baebbff867ec49a1022433ee97febb]
cluster flutter_complete_guide::providers::products.dart--><g id="cluster_flutter_complete_guide::providers::products.dart"><path d="M4001.5,147.5 L4346.5,147.5 A3.75,3.75 0 0 1 4349,150 L4356,171.1094 L4356.5,171.1094 A2.5,2.5 0 0 1 4359,173.6094 L4359,333 A2.5,2.5 0 0 1 4356.5,335.5 L4001.5,335.5 A2.5,2.5 0 0 1 3999,333 L3999,150 A2.5,2.5 0 0 1 4001.5,147.5 " fill="none" style="stroke:#000000;stroke-width:1.5;"/><line style="stroke:#000000;stroke-width:1.5;" x1="3999" x2="4356" y1="171.1094" y2="171.1094"/><text fill="#000000" font-family="sans-serif" font-size="14" font-weight="bold" lengthAdjust="spacing" textLength="344" x="4003" y="164.0332">flutter_complete_guide::providers::products.dart</text></g><!--MD5=[073587fd874b41d70ce25af01dfa0a94]
cluster flutter_complete_guide::screens::cart_screen.dart--><g id="cluster_flutter_complete_guide::screens::cart_screen.dart"><path d="M285.5,174 L639.5,174 A3.75,3.75 0 0 1 642,176.5 L649,197.6094 L649.5,197.6094 A2.5,2.5 0 0 1 652,200.1094 L652,306.5 A2.5,2.5 0 0 1 649.5,309 L285.5,309 A2.5,2.5 0 0 1 283,306.5 L283,176.5 A2.5,2.5 0 0 1 285.5,174 " fill="none" style="stroke:#000000;stroke-width:1.5;"/><line style="stroke:#000000;stroke-width:1.5;" x1="283" x2="649" y1="197.6094" y2="197.6094"/><text fill="#000000" font-family="sans-serif" font-size="14" font-weight="bold" lengthAdjust="spacing" textLength="353" x="287" y="190.5332">flutter_complete_guide::screens::cart_screen.dart</text></g><!--MD5=[fdc0b190e2b4a909914ed0781519b137]
cluster flutter_complete_guide::screens::products_overview_screen.dart--><g id="cluster_flutter_complete_guide::screens::products_overview_screen.dart"><path d="M2303.5,156.5 L2767.5,156.5 A3.75,3.75 0 0 1 2770,159 L2777,180.1094 L3168.5,180.1094 A2.5,2.5 0 0 1 3171,182.6094 L3171,324 A2.5,2.5 0 0 1 3168.5,326.5 L2303.5,326.5 A2.5,2.5 0 0 1 2301,324 L2301,159 A2.5,2.5 0 0 1 2303.5,156.5 " fill="none" style="stroke:#000000;stroke-width:1.5;"/><line style="stroke:#000000;stroke-width:1.5;" x1="2301" x2="2777" y1="180.1094" y2="180.1094"/><text fill="#000000" font-family="sans-serif" font-size="14" font-weight="bold" lengthAdjust="spacing" textLength="463" x="2305" y="173.0332">flutter_complete_guide::screens::products_overview_screen.dart</text></g><!--MD5=[de232fdc1314c20d23c64be510ba818f]
cluster dart::core--><g id="cluster_dart::core"><path d="M2989.5,6 L3058.5,6 A3.75,3.75 0 0 1 3061,8.5 L3068,29.6094 L3084.5,29.6094 A2.5,2.5 0 0 1 3087,32.1094 L3087,103.5 A2.5,2.5 0 0 1 3084.5,106 L2989.5,106 A2.5,2.5 0 0 1 2987,103.5 L2987,8.5 A2.5,2.5 0 0 1 2989.5,6 " fill="none" style="stroke:#000000;stroke-width:1.5;"/><line style="stroke:#000000;stroke-width:1.5;" x1="2987" x2="3068" y1="29.6094" y2="29.6094"/><text fill="#000000" font-family="sans-serif" font-size="14" font-weight="bold" lengthAdjust="spacing" textLength="68" x="2991" y="22.5332">dart::core</text></g><!--MD5=[7814acad22e0904b76a0f690d1e18688]
cluster flutter_complete_guide::screens::product_detail_screen.dart--><g id="cluster_flutter_complete_guide::screens::product_detail_screen.dart"><path d="M678.5,174 L1107.5,174 A3.75,3.75 0 0 1 1110,176.5 L1117,197.6094 L1117.5,197.6094 A2.5,2.5 0 0 1 1120,200.1094 L1120,306.5 A2.5,2.5 0 0 1 1117.5,309 L678.5,309 A2.5,2.5 0 0 1 676,306.5 L676,176.5 A2.5,2.5 0 0 1 678.5,174 " fill="none" style="stroke:#000000;stroke-width:1.5;"/><line style="stroke:#000000;stroke-width:1.5;" x1="676" x2="1117" y1="197.6094" y2="197.6094"/><text fill="#000000" font-family="sans-serif" font-size="14" font-weight="bold" lengthAdjust="spacing" textLength="428" x="680" y="190.5332">flutter_complete_guide::screens::product_detail_screen.dart</text></g><!--MD5=[23471de88c297b951c5c973382d362bd]
cluster flutter_complete_guide::widgets::badge.dart--><g id="cluster_flutter_complete_guide::widgets::badge.dart"><path d="M1146.5,156.5 L1458.5,156.5 A3.75,3.75 0 0 1 1461,159 L1468,180.1094 L1468.5,180.1094 A2.5,2.5 0 0 1 1471,182.6094 L1471,324 A2.5,2.5 0 0 1 1468.5,326.5 L1146.5,326.5 A2.5,2.5 0 0 1 1144,324 L1144,159 A2.5,2.5 0 0 1 1146.5,156.5 " fill="none" style="stroke:#000000;stroke-width:1.5;"/><line style="stroke:#000000;stroke-width:1.5;" x1="1144" x2="1468" y1="180.1094" y2="180.1094"/><text fill="#000000" font-family="sans-serif" font-size="14" font-weight="bold" lengthAdjust="spacing" textLength="311" x="1148" y="173.0332">flutter_complete_guide::widgets::badge.dart</text></g><!--MD5=[38be18612ed71996bdf82b0e8a8b954f]
cluster dart::ui--><g id="cluster_dart::ui"><path d="M1348.5,377 L1398.5,377 A3.75,3.75 0 0 1 1401,379.5 L1408,400.6094 L1441.5,400.6094 A2.5,2.5 0 0 1 1444,403.1094 L1444,474.5 A2.5,2.5 0 0 1 1441.5,477 L1348.5,477 A2.5,2.5 0 0 1 1346,474.5 L1346,379.5 A2.5,2.5 0 0 1 1348.5,377 " fill="none" style="stroke:#000000;stroke-width:1.5;"/><line style="stroke:#000000;stroke-width:1.5;" x1="1346" x2="1408" y1="400.6094" y2="400.6094"/><text fill="#000000" font-family="sans-serif" font-size="14" font-weight="bold" lengthAdjust="spacing" textLength="49" x="1350" y="393.5332">dart::ui</text></g><!--MD5=[ce0432b91ceee25d4d2c3d47a310e11e]
cluster flutter_complete_guide::widgets::products_grid.dart--><g id="cluster_flutter_complete_guide::widgets::products_grid.dart"><path d="M1497.5,174 L1864.5,174 A3.75,3.75 0 0 1 1867,176.5 L1874,197.6094 L1874.5,197.6094 A2.5,2.5 0 0 1 1877,200.1094 L1877,306.5 A2.5,2.5 0 0 1 1874.5,309 L1497.5,309 A2.5,2.5 0 0 1 1495,306.5 L1495,176.5 A2.5,2.5 0 0 1 1497.5,174 " fill="none" style="stroke:#000000;stroke-width:1.5;"/><line style="stroke:#000000;stroke-width:1.5;" x1="1495" x2="1874" y1="197.6094" y2="197.6094"/><text fill="#000000" font-family="sans-serif" font-size="14" font-weight="bold" lengthAdjust="spacing" textLength="366" x="1499" y="190.5332">flutter_complete_guide::widgets::products_grid.dart</text></g><!--MD5=[13f0cdf58932918e3e60807c17547003]
cluster flutter_complete_guide::widgets::product_item.dart--><g id="cluster_flutter_complete_guide::widgets::product_item.dart"><path d="M1903.5,182.5 L2264.5,182.5 A3.75,3.75 0 0 1 2267,185 L2274,206.1094 L2274.5,206.1094 A2.5,2.5 0 0 1 2277,208.6094 L2277,298 A2.5,2.5 0 0 1 2274.5,300.5 L1903.5,300.5 A2.5,2.5 0 0 1 1901,298 L1901,185 A2.5,2.5 0 0 1 1903.5,182.5 " fill="none" style="stroke:#000000;stroke-width:1.5;"/><line style="stroke:#000000;stroke-width:1.5;" x1="1901" x2="2274" y1="206.1094" y2="206.1094"/><text fill="#000000" font-family="sans-serif" font-size="14" font-weight="bold" lengthAdjust="spacing" textLength="360" x="1905" y="199.0332">flutter_complete_guide::widgets::product_item.dart</text></g><!--MD5=[e247745a65ca66e29ab662f9d71c5a8a]
class flutter_complete_guide::main.dart::MyApp--><g id="elem_flutter_complete_guide::main.dart::MyApp"><rect codeLine="3" fill="#F1F1F1" height="65.6094" id="flutter_complete_guide::main.dart::MyApp" rx="2.5" ry="2.5" style="stroke:#181818;stroke-width:0.5;" width="119" x="123.5" y="218.5"/><ellipse cx="158.3" cy="234.5" fill="#ADD1B2" rx="11" ry="11" style="stroke:#181818;stroke-width:1.0;"/><path d="M161.0656,230.375 Q161.2219,230.1563 161.4094,230.0469 Q161.5969,229.9375 161.8156,229.9375 Q162.1906,229.9375 162.425,230.1953 Q162.6594,230.4531 162.6594,231.0625 L162.6594,232.5156 Q162.6594,233.125 162.425,233.3906 Q162.1906,233.6563 161.8156,233.6563 Q161.4719,233.6563 161.2688,233.4531 Q161.0656,233.2656 160.9563,232.75 Q160.9094,232.3906 160.7219,232.2031 Q160.3938,231.8281 159.7844,231.6094 Q159.175,231.3906 158.55,231.3906 Q157.7844,231.3906 157.1516,231.7188 Q156.5188,232.0469 156.0266,232.7969 Q155.5344,233.5469 155.5344,234.5781 L155.5344,235.6719 Q155.5344,236.9063 156.425,237.7266 Q157.3156,238.5469 158.9094,238.5469 Q159.8469,238.5469 160.5031,238.2969 Q160.8938,238.1406 161.3156,237.7031 Q161.5813,237.4375 161.7297,237.3594 Q161.8781,237.2813 162.0813,237.2813 Q162.4094,237.2813 162.6672,237.5391 Q162.925,237.7969 162.925,238.1406 Q162.925,238.4844 162.5813,238.8906 Q162.0813,239.4688 161.2844,239.7969 Q160.2063,240.25 158.9094,240.25 Q157.3938,240.25 156.1906,239.625 Q155.2063,239.125 154.5188,238.0547 Q153.8313,236.9844 153.8313,235.7031 L153.8313,234.5469 Q153.8313,233.2188 154.4484,232.0703 Q155.0656,230.9219 156.1594,230.3047 Q157.2531,229.6875 158.4875,229.6875 Q159.2219,229.6875 159.8703,229.8516 Q160.5188,230.0156 161.0656,230.375 Z " fill="#000000"/><text fill="#000000" font-family="sans-serif" font-size="14" lengthAdjust="spacing" textLength="43" x="176.7" y="240.2285">MyApp</text><line style="stroke:#181818;stroke-width:0.5;" x1="124.5" x2="241.5" y1="250.5" y2="250.5"/><line style="stroke:#181818;stroke-width:0.5;" x1="124.5" x2="241.5" y1="258.5" y2="258.5"/><ellipse cx="134.5" cy="272.8047" fill="#84BE84" rx="3" ry="3" style="stroke:#038048;stroke-width:1.0;"/><text fill="#000000" font-family="sans-serif" font-size="14" lengthAdjust="spacing" textLength="93" x="143.5" y="277.0332">Widget* build()</text></g><!--MD5=[efc9ff8382eabd0f0b822d1be18a98a9]
class flutter::src::widgets::framework.dart::StatelessWidget--><g id="elem_flutter::src::widgets::framework.dart::StatelessWidget"><rect fill="#F1F1F1" height="48" id="flutter::src::widgets::framework.dart::StatelessWidget" rx="2.5" ry="2.5" style="stroke:#181818;stroke-width:0.5;" width="134" x="1328" y="42"/><ellipse cx="1343" cy="58" fill="#ADD1B2" rx="11" ry="11" style="stroke:#181818;stroke-width:1.0;"/><path d="M1345.7656,53.875 Q1345.9219,53.6563 1346.1094,53.5469 Q1346.2969,53.4375 1346.5156,53.4375 Q1346.8906,53.4375 1347.125,53.6953 Q1347.3594,53.9531 1347.3594,54.5625 L1347.3594,56.0156 Q1347.3594,56.625 1347.125,56.8906 Q1346.8906,57.1563 1346.5156,57.1563 Q1346.1719,57.1563 1345.9688,56.9531 Q1345.7656,56.7656 1345.6563,56.25 Q1345.6094,55.8906 1345.4219,55.7031 Q1345.0938,55.3281 1344.4844,55.1094 Q1343.875,54.8906 1343.25,54.8906 Q1342.4844,54.8906 1341.8516,55.2188 Q1341.2188,55.5469 1340.7266,56.2969 Q1340.2344,57.0469 1340.2344,58.0781 L1340.2344,59.1719 Q1340.2344,60.4063 1341.125,61.2266 Q1342.0156,62.0469 1343.6094,62.0469 Q1344.5469,62.0469 1345.2031,61.7969 Q1345.5938,61.6406 1346.0156,61.2031 Q1346.2813,60.9375 1346.4297,60.8594 Q1346.5781,60.7813 1346.7813,60.7813 Q1347.1094,60.7813 1347.3672,61.0391 Q1347.625,61.2969 1347.625,61.6406 Q1347.625,61.9844 1347.2813,62.3906 Q1346.7813,62.9688 1345.9844,63.2969 Q1344.9063,63.75 1343.6094,63.75 Q1342.0938,63.75 1340.8906,63.125 Q1339.9063,62.625 1339.2188,61.5547 Q1338.5313,60.4844 1338.5313,59.2031 L1338.5313,58.0469 Q1338.5313,56.7188 1339.1484,55.5703 Q1339.7656,54.4219 1340.8594,53.8047 Q1341.9531,53.1875 1343.1875,53.1875 Q1343.9219,53.1875 1344.5703,53.3516 Q1345.2188,53.5156 1345.7656,53.875 Z " fill="#000000"/><text fill="#000000" font-family="sans-serif" font-size="14" lengthAdjust="spacing" textLength="102" x="1357" y="63.7285">StatelessWidget</text><line style="stroke:#181818;stroke-width:0.5;" x1="1329" x2="1461" y1="74" y2="74"/><line style="stroke:#181818;stroke-width:0.5;" x1="1329" x2="1461" y1="82" y2="82"/></g><!--MD5=[aa3f7eeafec522ba9bc8f59b3155082c]
class flutter::src::widgets::framework.dart::StatefulWidget--><g id="elem_flutter::src::widgets::framework.dart::StatefulWidget"><rect fill="#F1F1F1" height="48" id="flutter::src::widgets::framework.dart::StatefulWidget" rx="2.5" ry="2.5" style="stroke:#181818;stroke-width:0.5;" width="124" x="1709" y="42"/><ellipse cx="1724" cy="58" fill="#ADD1B2" rx="11" ry="11" style="stroke:#181818;stroke-width:1.0;"/><path d="M1726.7656,53.875 Q1726.9219,53.6563 1727.1094,53.5469 Q1727.2969,53.4375 1727.5156,53.4375 Q1727.8906,53.4375 1728.125,53.6953 Q1728.3594,53.9531 1728.3594,54.5625 L1728.3594,56.0156 Q1728.3594,56.625 1728.125,56.8906 Q1727.8906,57.1563 1727.5156,57.1563 Q1727.1719,57.1563 1726.9688,56.9531 Q1726.7656,56.7656 1726.6563,56.25 Q1726.6094,55.8906 1726.4219,55.7031 Q1726.0938,55.3281 1725.4844,55.1094 Q1724.875,54.8906 1724.25,54.8906 Q1723.4844,54.8906 1722.8516,55.2188 Q1722.2188,55.5469 1721.7266,56.2969 Q1721.2344,57.0469 1721.2344,58.0781 L1721.2344,59.1719 Q1721.2344,60.4063 1722.125,61.2266 Q1723.0156,62.0469 1724.6094,62.0469 Q1725.5469,62.0469 1726.2031,61.7969 Q1726.5938,61.6406 1727.0156,61.2031 Q1727.2813,60.9375 1727.4297,60.8594 Q1727.5781,60.7813 1727.7813,60.7813 Q1728.1094,60.7813 1728.3672,61.0391 Q1728.625,61.2969 1728.625,61.6406 Q1728.625,61.9844 1728.2813,62.3906 Q1727.7813,62.9688 1726.9844,63.2969 Q1725.9063,63.75 1724.6094,63.75 Q1723.0938,63.75 1721.8906,63.125 Q1720.9063,62.625 1720.2188,61.5547 Q1719.5313,60.4844 1719.5313,59.2031 L1719.5313,58.0469 Q1719.5313,56.7188 1720.1484,55.5703 Q1720.7656,54.4219 1721.8594,53.8047 Q1722.9531,53.1875 1724.1875,53.1875 Q1724.9219,53.1875 1725.5703,53.3516 Q1726.2188,53.5156 1726.7656,53.875 Z " fill="#000000"/><text fill="#000000" font-family="sans-serif" font-size="14" lengthAdjust="spacing" textLength="92" x="1738" y="63.7285">StatefulWidget</text><line style="stroke:#181818;stroke-width:0.5;" x1="1710" x2="1832" y1="74" y2="74"/><line style="stroke:#181818;stroke-width:0.5;" x1="1710" x2="1832" y1="82" y2="82"/></g><!--MD5=[9432619776e71801fd4b58594ef73518]
class flutter::src::widgets::framework.dart::State--><g id="elem_flutter::src::widgets::framework.dart::State"><rect fill="#F1F1F1" height="48" id="flutter::src::widgets::framework.dart::State" rx="2.5" ry="2.5" style="stroke:#181818;stroke-width:0.5;" width="65" x="1608.5" y="42"/><ellipse cx="1623.5" cy="58" fill="#ADD1B2" rx="11" ry="11" style="stroke:#181818;stroke-width:1.0;"/><path d="M1626.2656,53.875 Q1626.4219,53.6563 1626.6094,53.5469 Q1626.7969,53.4375 1627.0156,53.4375 Q1627.3906,53.4375 1627.625,53.6953 Q1627.8594,53.9531 1627.8594,54.5625 L1627.8594,56.0156 Q1627.8594,56.625 1627.625,56.8906 Q1627.3906,57.1563 1627.0156,57.1563 Q1626.6719,57.1563 1626.4688,56.9531 Q1626.2656,56.7656 1626.1563,56.25 Q1626.1094,55.8906 1625.9219,55.7031 Q1625.5938,55.3281 1624.9844,55.1094 Q1624.375,54.8906 1623.75,54.8906 Q1622.9844,54.8906 1622.3516,55.2188 Q1621.7188,55.5469 1621.2266,56.2969 Q1620.7344,57.0469 1620.7344,58.0781 L1620.7344,59.1719 Q1620.7344,60.4063 1621.625,61.2266 Q1622.5156,62.0469 1624.1094,62.0469 Q1625.0469,62.0469 1625.7031,61.7969 Q1626.0938,61.6406 1626.5156,61.2031 Q1626.7813,60.9375 1626.9297,60.8594 Q1627.0781,60.7813 1627.2813,60.7813 Q1627.6094,60.7813 1627.8672,61.0391 Q1628.125,61.2969 1628.125,61.6406 Q1628.125,61.9844 1627.7813,62.3906 Q1627.2813,62.9688 1626.4844,63.2969 Q1625.4063,63.75 1624.1094,63.75 Q1622.5938,63.75 1621.3906,63.125 Q1620.4063,62.625 1619.7188,61.5547 Q1619.0313,60.4844 1619.0313,59.2031 L1619.0313,58.0469 Q1619.0313,56.7188 1619.6484,55.5703 Q1620.2656,54.4219 1621.3594,53.8047 Q1622.4531,53.1875 1623.6875,53.1875 Q1624.4219,53.1875 1625.0703,53.3516 Q1625.7188,53.5156 1626.2656,53.875 Z " fill="#000000"/><text fill="#000000" font-family="sans-serif" font-size="14" lengthAdjust="spacing" textLength="33" x="1637.5" y="63.7285">State</text><line style="stroke:#181818;stroke-width:0.5;" x1="1609.5" x2="1672.5" y1="74" y2="74"/><line style="stroke:#181818;stroke-width:0.5;" x1="1609.5" x2="1672.5" y1="82" y2="82"/></g><!--MD5=[d2e62aadffff5e51c9127899d6c4e7d9]
class flutter::src::widgets::framework.dart::Widget--><g id="elem_flutter::src::widgets::framework.dart::Widget"><rect fill="#F1F1F1" height="48" id="flutter::src::widgets::framework.dart::Widget" rx="2.5" ry="2.5" style="stroke:#181818;stroke-width:0.5;" width="76" x="1497" y="42"/><ellipse cx="1512" cy="58" fill="#ADD1B2" rx="11" ry="11" style="stroke:#181818;stroke-width:1.0;"/><path d="M1514.7656,53.875 Q1514.9219,53.6563 1515.1094,53.5469 Q1515.2969,53.4375 1515.5156,53.4375 Q1515.8906,53.4375 1516.125,53.6953 Q1516.3594,53.9531 1516.3594,54.5625 L1516.3594,56.0156 Q1516.3594,56.625 1516.125,56.8906 Q1515.8906,57.1563 1515.5156,57.1563 Q1515.1719,57.1563 1514.9688,56.9531 Q1514.7656,56.7656 1514.6563,56.25 Q1514.6094,55.8906 1514.4219,55.7031 Q1514.0938,55.3281 1513.4844,55.1094 Q1512.875,54.8906 1512.25,54.8906 Q1511.4844,54.8906 1510.8516,55.2188 Q1510.2188,55.5469 1509.7266,56.2969 Q1509.2344,57.0469 1509.2344,58.0781 L1509.2344,59.1719 Q1509.2344,60.4063 1510.125,61.2266 Q1511.0156,62.0469 1512.6094,62.0469 Q1513.5469,62.0469 1514.2031,61.7969 Q1514.5938,61.6406 1515.0156,61.2031 Q1515.2813,60.9375 1515.4297,60.8594 Q1515.5781,60.7813 1515.7813,60.7813 Q1516.1094,60.7813 1516.3672,61.0391 Q1516.625,61.2969 1516.625,61.6406 Q1516.625,61.9844 1516.2813,62.3906 Q1515.7813,62.9688 1514.9844,63.2969 Q1513.9063,63.75 1512.6094,63.75 Q1511.0938,63.75 1509.8906,63.125 Q1508.9063,62.625 1508.2188,61.5547 Q1507.5313,60.4844 1507.5313,59.2031 L1507.5313,58.0469 Q1507.5313,56.7188 1508.1484,55.5703 Q1508.7656,54.4219 1509.8594,53.8047 Q1510.9531,53.1875 1512.1875,53.1875 Q1512.9219,53.1875 1513.5703,53.3516 Q1514.2188,53.5156 1514.7656,53.875 Z " fill="#000000"/><text fill="#000000" font-family="sans-serif" font-size="14" lengthAdjust="spacing" textLength="44" x="1526" y="63.7285">Widget</text><line style="stroke:#181818;stroke-width:0.5;" x1="1498" x2="1572" y1="74" y2="74"/><line style="stroke:#181818;stroke-width:0.5;" x1="1498" x2="1572" y1="82" y2="82"/></g><!--MD5=[1c4057ff03eec043a4149e11a884cee5]
class flutter_complete_guide::providers::cart.dart::CartItem--><g id="elem_flutter_complete_guide::providers::cart.dart::CartItem"><rect codeLine="9" fill="#F1F1F1" height="118.4375" id="flutter_complete_guide::providers::cart.dart::CartItem" rx="2.5" ry="2.5" style="stroke:#181818;stroke-width:0.5;" width="109" x="3473.5" y="192.5"/><ellipse cx="3499.3" cy="208.5" fill="#ADD1B2" rx="11" ry="11" style="stroke:#181818;stroke-width:1.0;"/><path d="M3502.0656,204.375 Q3502.2219,204.1563 3502.4094,204.0469 Q3502.5969,203.9375 3502.8156,203.9375 Q3503.1906,203.9375 3503.425,204.1953 Q3503.6594,204.4531 3503.6594,205.0625 L3503.6594,206.5156 Q3503.6594,207.125 3503.425,207.3906 Q3503.1906,207.6563 3502.8156,207.6563 Q3502.4719,207.6563 3502.2688,207.4531 Q3502.0656,207.2656 3501.9563,206.75 Q3501.9094,206.3906 3501.7219,206.2031 Q3501.3938,205.8281 3500.7844,205.6094 Q3500.175,205.3906 3499.55,205.3906 Q3498.7844,205.3906 3498.1516,205.7188 Q3497.5188,206.0469 3497.0266,206.7969 Q3496.5344,207.5469 3496.5344,208.5781 L3496.5344,209.6719 Q3496.5344,210.9063 3497.425,211.7266 Q3498.3156,212.5469 3499.9094,212.5469 Q3500.8469,212.5469 3501.5031,212.2969 Q3501.8938,212.1406 3502.3156,211.7031 Q3502.5813,211.4375 3502.7297,211.3594 Q3502.8781,211.2813 3503.0813,211.2813 Q3503.4094,211.2813 3503.6672,211.5391 Q3503.925,211.7969 3503.925,212.1406 Q3503.925,212.4844 3503.5813,212.8906 Q3503.0813,213.4688 3502.2844,213.7969 Q3501.2063,214.25 3499.9094,214.25 Q3498.3938,214.25 3497.1906,213.625 Q3496.2063,213.125 3495.5188,212.0547 Q3494.8313,210.9844 3494.8313,209.7031 L3494.8313,208.5469 Q3494.8313,207.2188 3495.4484,206.0703 Q3496.0656,204.9219 3497.1594,204.3047 Q3498.2531,203.6875 3499.4875,203.6875 Q3500.2219,203.6875 3500.8703,203.8516 Q3501.5188,204.0156 3502.0656,204.375 Z " fill="#000000"/><text fill="#000000" font-family="sans-serif" font-size="14" lengthAdjust="spacing" textLength="53" x="3515.7" y="214.2285">CartItem</text><line style="stroke:#181818;stroke-width:0.5;" x1="3474.5" x2="3581.5" y1="224.5" y2="224.5"/><ellipse cx="3484.5" cy="238.8047" fill="none" rx="3" ry="3" style="stroke:#038048;stroke-width:1.0;"/><text fill="#000000" font-family="sans-serif" font-size="14" lengthAdjust="spacing" textLength="57" x="3493.5" y="243.0332">String* id</text><ellipse cx="3484.5" cy="256.4141" fill="none" rx="3" ry="3" style="stroke:#038048;stroke-width:1.0;"/><text fill="#000000" font-family="sans-serif" font-size="14" lengthAdjust="spacing" textLength="68" x="3493.5" y="260.6426">String* title</text><ellipse cx="3484.5" cy="274.0234" fill="none" rx="3" ry="3" style="stroke:#038048;stroke-width:1.0;"/><text fill="#000000" font-family="sans-serif" font-size="14" lengthAdjust="spacing" textLength="74" x="3493.5" y="278.252">int* quantity</text><ellipse cx="3484.5" cy="291.6328" fill="none" rx="3" ry="3" style="stroke:#038048;stroke-width:1.0;"/><text fill="#000000" font-family="sans-serif" font-size="14" lengthAdjust="spacing" textLength="83" x="3493.5" y="295.8613">double* price</text><line style="stroke:#181818;stroke-width:0.5;" x1="3474.5" x2="3581.5" y1="302.9375" y2="302.9375"/></g><!--MD5=[f020af6bf7499792e0a308cf5b963d8b]
class flutter_complete_guide::providers::cart.dart::Cart--><g id="elem_flutter_complete_guide::providers::cart.dart::Cart"><rect codeLine="16" fill="#F1F1F1" height="136.0469" id="flutter_complete_guide::providers::cart.dart::Cart" rx="2.5" ry="2.5" style="stroke:#181818;stroke-width:0.5;" width="227" x="3211.5" y="183.5"/><ellipse cx="3307.25" cy="199.5" fill="#ADD1B2" rx="11" ry="11" style="stroke:#181818;stroke-width:1.0;"/><path d="M3310.0156,195.375 Q3310.1719,195.1563 3310.3594,195.0469 Q3310.5469,194.9375 3310.7656,194.9375 Q3311.1406,194.9375 3311.375,195.1953 Q3311.6094,195.4531 3311.6094,196.0625 L3311.6094,197.5156 Q3311.6094,198.125 3311.375,198.3906 Q3311.1406,198.6563 3310.7656,198.6563 Q3310.4219,198.6563 3310.2188,198.4531 Q3310.0156,198.2656 3309.9063,197.75 Q3309.8594,197.3906 3309.6719,197.2031 Q3309.3438,196.8281 3308.7344,196.6094 Q3308.125,196.3906 3307.5,196.3906 Q3306.7344,196.3906 3306.1016,196.7188 Q3305.4688,197.0469 3304.9766,197.7969 Q3304.4844,198.5469 3304.4844,199.5781 L3304.4844,200.6719 Q3304.4844,201.9063 3305.375,202.7266 Q3306.2656,203.5469 3307.8594,203.5469 Q3308.7969,203.5469 3309.4531,203.2969 Q3309.8438,203.1406 3310.2656,202.7031 Q3310.5313,202.4375 3310.6797,202.3594 Q3310.8281,202.2813 3311.0313,202.2813 Q3311.3594,202.2813 3311.6172,202.5391 Q3311.875,202.7969 3311.875,203.1406 Q3311.875,203.4844 3311.5313,203.8906 Q3311.0313,204.4688 3310.2344,204.7969 Q3309.1563,205.25 3307.8594,205.25 Q3306.3438,205.25 3305.1406,204.625 Q3304.1563,204.125 3303.4688,203.0547 Q3302.7813,201.9844 3302.7813,200.7031 L3302.7813,199.5469 Q3302.7813,198.2188 3303.3984,197.0703 Q3304.0156,195.9219 3305.1094,195.3047 Q3306.2031,194.6875 3307.4375,194.6875 Q3308.1719,194.6875 3308.8203,194.8516 Q3309.4688,195.0156 3310.0156,195.375 Z " fill="#000000"/><text fill="#000000" font-family="sans-serif" font-size="14" lengthAdjust="spacing" textLength="27" x="3327.75" y="205.2285">Cart</text><line style="stroke:#181818;stroke-width:0.5;" x1="3212.5" x2="3437.5" y1="215.5" y2="215.5"/><rect fill="none" height="6" style="stroke:#C82930;stroke-width:1.0;" width="6" x="3219.5" y="226.8047"/><text fill="#000000" font-family="sans-serif" font-size="14" lengthAdjust="spacing" textLength="201" x="3231.5" y="234.0332">Map&lt;String*, CartItem*&gt;* _items</text><ellipse cx="3222.5" cy="247.4141" fill="none" rx="3" ry="3" style="stroke:#038048;stroke-width:1.0;"/><text fill="#000000" font-family="sans-serif" font-size="14" lengthAdjust="spacing" textLength="193" x="3231.5" y="251.6426">Map&lt;String*, CartItem*&gt;* items</text><ellipse cx="3222.5" cy="265.0234" fill="none" rx="3" ry="3" style="stroke:#038048;stroke-width:1.0;"/><text fill="#000000" font-family="sans-serif" font-size="14" lengthAdjust="spacing" textLength="88" x="3231.5" y="269.252">int* itemCount</text><ellipse cx="3222.5" cy="282.6328" fill="none" rx="3" ry="3" style="stroke:#038048;stroke-width:1.0;"/><text fill="#000000" font-family="sans-serif" font-size="14" lengthAdjust="spacing" textLength="127" x="3231.5" y="286.8613">double* totalAmount</text><line style="stroke:#181818;stroke-width:0.5;" x1="3212.5" x2="3437.5" y1="293.9375" y2="293.9375"/><ellipse cx="3222.5" cy="308.2422" fill="#84BE84" rx="3" ry="3" style="stroke:#038048;stroke-width:1.0;"/><text fill="#000000" font-family="sans-serif" font-size="14" lengthAdjust="spacing" textLength="90" x="3231.5" y="312.4707">void addItem()</text></g><!--MD5=[4bdc211f364e4b76e397883af82a26e7]
class flutter::src::foundation::change_notifier.dart::ChangeNotifier--><g id="elem_flutter::src::foundation::change_notifier.dart::ChangeNotifier"><rect fill="#F1F1F1" height="48" id="flutter::src::foundation::change_notifier.dart::ChangeNotifier" rx="2.5" ry="2.5" style="stroke:#181818;stroke-width:0.5;" width="126" x="3736" y="42"/><ellipse cx="3751" cy="58" fill="#ADD1B2" rx="11" ry="11" style="stroke:#181818;stroke-width:1.0;"/><path d="M3753.7656,53.875 Q3753.9219,53.6563 3754.1094,53.5469 Q3754.2969,53.4375 3754.5156,53.4375 Q3754.8906,53.4375 3755.125,53.6953 Q3755.3594,53.9531 3755.3594,54.5625 L3755.3594,56.0156 Q3755.3594,56.625 3755.125,56.8906 Q3754.8906,57.1563 3754.5156,57.1563 Q3754.1719,57.1563 3753.9688,56.9531 Q3753.7656,56.7656 3753.6563,56.25 Q3753.6094,55.8906 3753.4219,55.7031 Q3753.0938,55.3281 3752.4844,55.1094 Q3751.875,54.8906 3751.25,54.8906 Q3750.4844,54.8906 3749.8516,55.2188 Q3749.2188,55.5469 3748.7266,56.2969 Q3748.2344,57.0469 3748.2344,58.0781 L3748.2344,59.1719 Q3748.2344,60.4063 3749.125,61.2266 Q3750.0156,62.0469 3751.6094,62.0469 Q3752.5469,62.0469 3753.2031,61.7969 Q3753.5938,61.6406 3754.0156,61.2031 Q3754.2813,60.9375 3754.4297,60.8594 Q3754.5781,60.7813 3754.7813,60.7813 Q3755.1094,60.7813 3755.3672,61.0391 Q3755.625,61.2969 3755.625,61.6406 Q3755.625,61.9844 3755.2813,62.3906 Q3754.7813,62.9688 3753.9844,63.2969 Q3752.9063,63.75 3751.6094,63.75 Q3750.0938,63.75 3748.8906,63.125 Q3747.9063,62.625 3747.2188,61.5547 Q3746.5313,60.4844 3746.5313,59.2031 L3746.5313,58.0469 Q3746.5313,56.7188 3747.1484,55.5703 Q3747.7656,54.4219 3748.8594,53.8047 Q3749.9531,53.1875 3751.1875,53.1875 Q3751.9219,53.1875 3752.5703,53.3516 Q3753.2188,53.5156 3753.7656,53.875 Z " fill="#000000"/><text fill="#000000" font-family="sans-serif" font-size="14" lengthAdjust="spacing" textLength="94" x="3765" y="63.7285">ChangeNotifier</text><line style="stroke:#181818;stroke-width:0.5;" x1="3737" x2="3861" y1="74" y2="74"/><line style="stroke:#181818;stroke-width:0.5;" x1="3737" x2="3861" y1="82" y2="82"/></g><!--MD5=[b87217f41feaa2b2adbfcc040d25151b]
class flutter_complete_guide::providers::product.dart::Product--><g id="elem_flutter_complete_guide::providers::product.dart::Product"><rect codeLine="26" fill="#F1F1F1" height="171.2656" id="flutter_complete_guide::providers::product.dart::Product" rx="2.5" ry="2.5" style="stroke:#181818;stroke-width:0.5;" width="197" x="3700.5" y="166"/><ellipse cx="3770.25" cy="182" fill="#ADD1B2" rx="11" ry="11" style="stroke:#181818;stroke-width:1.0;"/><path d="M3773.0156,177.875 Q3773.1719,177.6563 3773.3594,177.5469 Q3773.5469,177.4375 3773.7656,177.4375 Q3774.1406,177.4375 3774.375,177.6953 Q3774.6094,177.9531 3774.6094,178.5625 L3774.6094,180.0156 Q3774.6094,180.625 3774.375,180.8906 Q3774.1406,181.1563 3773.7656,181.1563 Q3773.4219,181.1563 3773.2188,180.9531 Q3773.0156,180.7656 3772.9063,180.25 Q3772.8594,179.8906 3772.6719,179.7031 Q3772.3438,179.3281 3771.7344,179.1094 Q3771.125,178.8906 3770.5,178.8906 Q3769.7344,178.8906 3769.1016,179.2188 Q3768.4688,179.5469 3767.9766,180.2969 Q3767.4844,181.0469 3767.4844,182.0781 L3767.4844,183.1719 Q3767.4844,184.4063 3768.375,185.2266 Q3769.2656,186.0469 3770.8594,186.0469 Q3771.7969,186.0469 3772.4531,185.7969 Q3772.8438,185.6406 3773.2656,185.2031 Q3773.5313,184.9375 3773.6797,184.8594 Q3773.8281,184.7813 3774.0313,184.7813 Q3774.3594,184.7813 3774.6172,185.0391 Q3774.875,185.2969 3774.875,185.6406 Q3774.875,185.9844 3774.5313,186.3906 Q3774.0313,186.9688 3773.2344,187.2969 Q3772.1563,187.75 3770.8594,187.75 Q3769.3438,187.75 3768.1406,187.125 Q3767.1563,186.625 3766.4688,185.5547 Q3765.7813,184.4844 3765.7813,183.2031 L3765.7813,182.0469 Q3765.7813,180.7188 3766.3984,179.5703 Q3767.0156,178.4219 3768.1094,177.8047 Q3769.2031,177.1875 3770.4375,177.1875 Q3771.1719,177.1875 3771.8203,177.3516 Q3772.4688,177.5156 3773.0156,177.875 Z " fill="#000000"/><text fill="#000000" font-family="sans-serif" font-size="14" lengthAdjust="spacing" textLength="49" x="3790.75" y="187.7285">Product</text><line style="stroke:#181818;stroke-width:0.5;" x1="3701.5" x2="3896.5" y1="198" y2="198"/><ellipse cx="3711.5" cy="212.3047" fill="none" rx="3" ry="3" style="stroke:#038048;stroke-width:1.0;"/><text fill="#000000" font-family="sans-serif" font-size="14" lengthAdjust="spacing" textLength="57" x="3720.5" y="216.5332">String* id</text><ellipse cx="3711.5" cy="229.9141" fill="none" rx="3" ry="3" style="stroke:#038048;stroke-width:1.0;"/><text fill="#000000" font-family="sans-serif" font-size="14" lengthAdjust="spacing" textLength="68" x="3720.5" y="234.1426">String* title</text><ellipse cx="3711.5" cy="247.5234" fill="none" rx="3" ry="3" style="stroke:#038048;stroke-width:1.0;"/><text fill="#000000" font-family="sans-serif" font-size="14" lengthAdjust="spacing" textLength="115" x="3720.5" y="251.752">String* description</text><ellipse cx="3711.5" cy="265.1328" fill="none" rx="3" ry="3" style="stroke:#038048;stroke-width:1.0;"/><text fill="#000000" font-family="sans-serif" font-size="14" lengthAdjust="spacing" textLength="83" x="3720.5" y="269.3613">double* price</text><ellipse cx="3711.5" cy="282.7422" fill="none" rx="3" ry="3" style="stroke:#038048;stroke-width:1.0;"/><text fill="#000000" font-family="sans-serif" font-size="14" lengthAdjust="spacing" textLength="101" x="3720.5" y="286.9707">String* imageUrl</text><ellipse cx="3711.5" cy="300.3516" fill="none" rx="3" ry="3" style="stroke:#038048;stroke-width:1.0;"/><text fill="#000000" font-family="sans-serif" font-size="14" lengthAdjust="spacing" textLength="98" x="3720.5" y="304.5801">bool* isFavorite</text><line style="stroke:#181818;stroke-width:0.5;" x1="3701.5" x2="3896.5" y1="311.6563" y2="311.6563"/><ellipse cx="3711.5" cy="325.9609" fill="#84BE84" rx="3" ry="3" style="stroke:#038048;stroke-width:1.0;"/><text fill="#000000" font-family="sans-serif" font-size="14" lengthAdjust="spacing" textLength="171" x="3720.5" y="330.1895">void toogleFavoriteStatus()</text></g><!--MD5=[f4f9d3de1f91103d35e258a0f409566a]
class flutter_complete_guide::providers::products.dart::Products--><g id="elem_flutter_complete_guide::providers::products.dart::Products"><rect codeLine="38" fill="#F1F1F1" height="136.0469" id="flutter_complete_guide::providers::products.dart::Products" rx="2.5" ry="2.5" style="stroke:#181818;stroke-width:0.5;" width="207" x="4015.5" y="183.5"/><ellipse cx="4086.75" cy="199.5" fill="#ADD1B2" rx="11" ry="11" style="stroke:#181818;stroke-width:1.0;"/><path d="M4089.5156,195.375 Q4089.6719,195.1563 4089.8594,195.0469 Q4090.0469,194.9375 4090.2656,194.9375 Q4090.6406,194.9375 4090.875,195.1953 Q4091.1094,195.4531 4091.1094,196.0625 L4091.1094,197.5156 Q4091.1094,198.125 4090.875,198.3906 Q4090.6406,198.6563 4090.2656,198.6563 Q4089.9219,198.6563 4089.7188,198.4531 Q4089.5156,198.2656 4089.4063,197.75 Q4089.3594,197.3906 4089.1719,197.2031 Q4088.8438,196.8281 4088.2344,196.6094 Q4087.625,196.3906 4087,196.3906 Q4086.2344,196.3906 4085.6016,196.7188 Q4084.9688,197.0469 4084.4766,197.7969 Q4083.9844,198.5469 4083.9844,199.5781 L4083.9844,200.6719 Q4083.9844,201.9063 4084.875,202.7266 Q4085.7656,203.5469 4087.3594,203.5469 Q4088.2969,203.5469 4088.9531,203.2969 Q4089.3438,203.1406 4089.7656,202.7031 Q4090.0313,202.4375 4090.1797,202.3594 Q4090.3281,202.2813 4090.5313,202.2813 Q4090.8594,202.2813 4091.1172,202.5391 Q4091.375,202.7969 4091.375,203.1406 Q4091.375,203.4844 4091.0313,203.8906 Q4090.5313,204.4688 4089.7344,204.7969 Q4088.6563,205.25 4087.3594,205.25 Q4085.8438,205.25 4084.6406,204.625 Q4083.6563,204.125 4082.9688,203.0547 Q4082.2813,201.9844 4082.2813,200.7031 L4082.2813,199.5469 Q4082.2813,198.2188 4082.8984,197.0703 Q4083.5156,195.9219 4084.6094,195.3047 Q4085.7031,194.6875 4086.9375,194.6875 Q4087.6719,194.6875 4088.3203,194.8516 Q4088.9688,195.0156 4089.5156,195.375 Z " fill="#000000"/><text fill="#000000" font-family="sans-serif" font-size="14" lengthAdjust="spacing" textLength="56" x="4107.25" y="205.2285">Products</text><line style="stroke:#181818;stroke-width:0.5;" x1="4016.5" x2="4221.5" y1="215.5" y2="215.5"/><rect fill="none" height="6" style="stroke:#C82930;stroke-width:1.0;" width="6" x="4023.5" y="226.8047"/><text fill="#000000" font-family="sans-serif" font-size="14" lengthAdjust="spacing" textLength="142" x="4035.5" y="234.0332">List&lt;Product*&gt;* _items</text><ellipse cx="4026.5" cy="247.4141" fill="none" rx="3" ry="3" style="stroke:#038048;stroke-width:1.0;"/><text fill="#000000" font-family="sans-serif" font-size="14" lengthAdjust="spacing" textLength="134" x="4035.5" y="251.6426">List&lt;Product*&gt;* items</text><ellipse cx="4026.5" cy="265.0234" fill="none" rx="3" ry="3" style="stroke:#038048;stroke-width:1.0;"/><text fill="#000000" font-family="sans-serif" font-size="14" lengthAdjust="spacing" textLength="181" x="4035.5" y="269.252">List&lt;Product*&gt;* favoriteItems</text><line style="stroke:#181818;stroke-width:0.5;" x1="4016.5" x2="4221.5" y1="276.3281" y2="276.3281"/><ellipse cx="4026.5" cy="290.6328" fill="#84BE84" rx="3" ry="3" style="stroke:#038048;stroke-width:1.0;"/><text fill="#000000" font-family="sans-serif" font-size="14" lengthAdjust="spacing" textLength="118" x="4035.5" y="294.8613">Product* findById()</text><ellipse cx="4026.5" cy="308.2422" fill="#84BE84" rx="3" ry="3" style="stroke:#038048;stroke-width:1.0;"/><text fill="#000000" font-family="sans-serif" font-size="14" lengthAdjust="spacing" textLength="113" x="4035.5" y="312.4707">void addProduct()</text></g><!--MD5=[b0522af1a302bba7d3e1de1411997fde]
class flutter_complete_guide::screens::cart_screen.dart::CartScreen--><g id="elem_flutter_complete_guide::screens::cart_screen.dart::CartScreen"><rect codeLine="48" fill="#F1F1F1" height="83.2188" id="flutter_complete_guide::screens::cart_screen.dart::CartScreen" rx="2.5" ry="2.5" style="stroke:#181818;stroke-width:0.5;" width="141" x="494.5" y="210"/><ellipse cx="526.15" cy="226" fill="#ADD1B2" rx="11" ry="11" style="stroke:#181818;stroke-width:1.0;"/><path d="M528.9156,221.875 Q529.0719,221.6563 529.2594,221.5469 Q529.4469,221.4375 529.6656,221.4375 Q530.0406,221.4375 530.275,221.6953 Q530.5094,221.9531 530.5094,222.5625 L530.5094,224.0156 Q530.5094,224.625 530.275,224.8906 Q530.0406,225.1563 529.6656,225.1563 Q529.3219,225.1563 529.1188,224.9531 Q528.9156,224.7656 528.8063,224.25 Q528.7594,223.8906 528.5719,223.7031 Q528.2438,223.3281 527.6344,223.1094 Q527.025,222.8906 526.4,222.8906 Q525.6344,222.8906 525.0016,223.2188 Q524.3688,223.5469 523.8766,224.2969 Q523.3844,225.0469 523.3844,226.0781 L523.3844,227.1719 Q523.3844,228.4063 524.275,229.2266 Q525.1656,230.0469 526.7594,230.0469 Q527.6969,230.0469 528.3531,229.7969 Q528.7438,229.6406 529.1656,229.2031 Q529.4313,228.9375 529.5797,228.8594 Q529.7281,228.7813 529.9313,228.7813 Q530.2594,228.7813 530.5172,229.0391 Q530.775,229.2969 530.775,229.6406 Q530.775,229.9844 530.4313,230.3906 Q529.9313,230.9688 529.1344,231.2969 Q528.0563,231.75 526.7594,231.75 Q525.2438,231.75 524.0406,231.125 Q523.0563,230.625 522.3688,229.5547 Q521.6813,228.4844 521.6813,227.2031 L521.6813,226.0469 Q521.6813,224.7188 522.2984,223.5703 Q522.9156,222.4219 524.0094,221.8047 Q525.1031,221.1875 526.3375,221.1875 Q527.0719,221.1875 527.7203,221.3516 Q528.3688,221.5156 528.9156,221.875 Z " fill="#000000"/><text fill="#000000" font-family="sans-serif" font-size="14" lengthAdjust="spacing" textLength="72" x="543.85" y="231.7285">CartScreen</text><line style="stroke:#181818;stroke-width:0.5;" x1="495.5" x2="634.5" y1="242" y2="242"/><ellipse cx="505.5" cy="256.3047" fill="none" rx="3" ry="3" style="stroke:#038048;stroke-width:1.0;"/><text fill="#000000" font-family="sans-serif" font-size="14" lengthAdjust="spacing" text-decoration="underline" textLength="115" x="514.5" y="260.5332">String* routeName</text><line style="stroke:#181818;stroke-width:0.5;" x1="495.5" x2="634.5" y1="267.6094" y2="267.6094"/><ellipse cx="505.5" cy="281.9141" fill="#84BE84" rx="3" ry="3" style="stroke:#038048;stroke-width:1.0;"/><text fill="#000000" font-family="sans-serif" font-size="14" lengthAdjust="spacing" textLength="93" x="514.5" y="286.1426">Widget* build()</text></g><!--MD5=[e442c43b7a7883489f48339866c561d2]
class flutter_complete_guide::screens::products_overview_screen.dart::ProductOverviewScreen--><g id="elem_flutter_complete_guide::screens::products_overview_screen.dart::ProductOverviewScreen"><rect codeLine="55" fill="#F1F1F1" height="65.6094" id="flutter_complete_guide::screens::products_overview_screen.dart::ProductOverviewScreen" rx="2.5" ry="2.5" style="stroke:#181818;stroke-width:0.5;" width="324" x="2578" y="218.5"/><ellipse cx="2659.75" cy="234.5" fill="#ADD1B2" rx="11" ry="11" style="stroke:#181818;stroke-width:1.0;"/><path d="M2662.5156,230.375 Q2662.6719,230.1563 2662.8594,230.0469 Q2663.0469,229.9375 2663.2656,229.9375 Q2663.6406,229.9375 2663.875,230.1953 Q2664.1094,230.4531 2664.1094,231.0625 L2664.1094,232.5156 Q2664.1094,233.125 2663.875,233.3906 Q2663.6406,233.6563 2663.2656,233.6563 Q2662.9219,233.6563 2662.7188,233.4531 Q2662.5156,233.2656 2662.4063,232.75 Q2662.3594,232.3906 2662.1719,232.2031 Q2661.8438,231.8281 2661.2344,231.6094 Q2660.625,231.3906 2660,231.3906 Q2659.2344,231.3906 2658.6016,231.7188 Q2657.9688,232.0469 2657.4766,232.7969 Q2656.9844,233.5469 2656.9844,234.5781 L2656.9844,235.6719 Q2656.9844,236.9063 2657.875,237.7266 Q2658.7656,238.5469 2660.3594,238.5469 Q2661.2969,238.5469 2661.9531,238.2969 Q2662.3438,238.1406 2662.7656,237.7031 Q2663.0313,237.4375 2663.1797,237.3594 Q2663.3281,237.2813 2663.5313,237.2813 Q2663.8594,237.2813 2664.1172,237.5391 Q2664.375,237.7969 2664.375,238.1406 Q2664.375,238.4844 2664.0313,238.8906 Q2663.5313,239.4688 2662.7344,239.7969 Q2661.6563,240.25 2660.3594,240.25 Q2658.8438,240.25 2657.6406,239.625 Q2656.6563,239.125 2655.9688,238.0547 Q2655.2813,236.9844 2655.2813,235.7031 L2655.2813,234.5469 Q2655.2813,233.2188 2655.8984,232.0703 Q2656.5156,230.9219 2657.6094,230.3047 Q2658.7031,229.6875 2659.9375,229.6875 Q2660.6719,229.6875 2661.3203,229.8516 Q2661.9688,230.0156 2662.5156,230.375 Z " fill="#000000"/><text fill="#000000" font-family="sans-serif" font-size="14" lengthAdjust="spacing" textLength="152" x="2680.25" y="240.2285">ProductOverviewScreen</text><line style="stroke:#181818;stroke-width:0.5;" x1="2579" x2="2901" y1="250.5" y2="250.5"/><line style="stroke:#181818;stroke-width:0.5;" x1="2579" x2="2901" y1="258.5" y2="258.5"/><ellipse cx="2589" cy="272.8047" fill="#84BE84" rx="3" ry="3" style="stroke:#038048;stroke-width:1.0;"/><text fill="#000000" font-family="sans-serif" font-size="14" lengthAdjust="spacing" textLength="298" x="2598" y="277.0332">State&lt;ProductOverviewScreen*&gt;* createState()</text></g><!--MD5=[36bd0bb29cf83fe363d44850fb4a5a1a]
class flutter_complete_guide::screens::products_overview_screen.dart::_ProductOverviewScreenState--><g id="elem_flutter_complete_guide::screens::products_overview_screen.dart::_ProductOverviewScreenState"><rect codeLine="61" fill="#F1F1F1" height="83.2188" id="flutter_complete_guide::screens::products_overview_screen.dart::_ProductOverviewScreenState" rx="2.5" ry="2.5" style="stroke:#181818;stroke-width:0.5;" width="225" x="2317.5" y="210"/><ellipse cx="2332.5" cy="226" fill="#ADD1B2" rx="11" ry="11" style="stroke:#181818;stroke-width:1.0;"/><path d="M2335.2656,221.875 Q2335.4219,221.6563 2335.6094,221.5469 Q2335.7969,221.4375 2336.0156,221.4375 Q2336.3906,221.4375 2336.625,221.6953 Q2336.8594,221.9531 2336.8594,222.5625 L2336.8594,224.0156 Q2336.8594,224.625 2336.625,224.8906 Q2336.3906,225.1563 2336.0156,225.1563 Q2335.6719,225.1563 2335.4688,224.9531 Q2335.2656,224.7656 2335.1563,224.25 Q2335.1094,223.8906 2334.9219,223.7031 Q2334.5938,223.3281 2333.9844,223.1094 Q2333.375,222.8906 2332.75,222.8906 Q2331.9844,222.8906 2331.3516,223.2188 Q2330.7188,223.5469 2330.2266,224.2969 Q2329.7344,225.0469 2329.7344,226.0781 L2329.7344,227.1719 Q2329.7344,228.4063 2330.625,229.2266 Q2331.5156,230.0469 2333.1094,230.0469 Q2334.0469,230.0469 2334.7031,229.7969 Q2335.0938,229.6406 2335.5156,229.2031 Q2335.7813,228.9375 2335.9297,228.8594 Q2336.0781,228.7813 2336.2813,228.7813 Q2336.6094,228.7813 2336.8672,229.0391 Q2337.125,229.2969 2337.125,229.6406 Q2337.125,229.9844 2336.7813,230.3906 Q2336.2813,230.9688 2335.4844,231.2969 Q2334.4063,231.75 2333.1094,231.75 Q2331.5938,231.75 2330.3906,231.125 Q2329.4063,230.625 2328.7188,229.5547 Q2328.0313,228.4844 2328.0313,227.2031 L2328.0313,226.0469 Q2328.0313,224.7188 2328.6484,223.5703 Q2329.2656,222.4219 2330.3594,221.8047 Q2331.4531,221.1875 2332.6875,221.1875 Q2333.4219,221.1875 2334.0703,221.3516 Q2334.7188,221.5156 2335.2656,221.875 Z " fill="#000000"/><text fill="#000000" font-family="sans-serif" font-size="14" lengthAdjust="spacing" textLength="193" x="2346.5" y="231.7285">_ProductOverviewScreenState</text><line style="stroke:#181818;stroke-width:0.5;" x1="2318.5" x2="2541.5" y1="242" y2="242"/><rect fill="none" height="6" style="stroke:#C82930;stroke-width:1.0;" width="6" x="2325.5" y="253.3047"/><text fill="#000000" font-family="sans-serif" font-size="14" lengthAdjust="spacing" textLength="164" x="2337.5" y="260.5332">bool* _showOnlyFavorites</text><line style="stroke:#181818;stroke-width:0.5;" x1="2318.5" x2="2541.5" y1="267.6094" y2="267.6094"/><ellipse cx="2328.5" cy="281.9141" fill="#84BE84" rx="3" ry="3" style="stroke:#038048;stroke-width:1.0;"/><text fill="#000000" font-family="sans-serif" font-size="14" lengthAdjust="spacing" textLength="93" x="2337.5" y="286.1426">Widget* build()</text></g><!--MD5=[74cb5ff9ec00ac962201f1a26cc4078d]
class flutter_complete_guide::screens::products_overview_screen.dart::FilterOptions--><g id="elem_flutter_complete_guide::screens::products_overview_screen.dart::FilterOptions"><rect codeLine="68" fill="#F1F1F1" height="118.4375" id="flutter_complete_guide::screens::products_overview_screen.dart::FilterOptions" rx="2.5" ry="2.5" style="stroke:#181818;stroke-width:0.5;" width="200" x="2937" y="192.5"/><ellipse cx="2992.25" cy="208.5" fill="#ADD1B2" rx="11" ry="11" style="stroke:#181818;stroke-width:1.0;"/><path d="M2995.0156,204.375 Q2995.1719,204.1563 2995.3594,204.0469 Q2995.5469,203.9375 2995.7656,203.9375 Q2996.1406,203.9375 2996.375,204.1953 Q2996.6094,204.4531 2996.6094,205.0625 L2996.6094,206.5156 Q2996.6094,207.125 2996.375,207.3906 Q2996.1406,207.6563 2995.7656,207.6563 Q2995.4219,207.6563 2995.2188,207.4531 Q2995.0156,207.2656 2994.9063,206.75 Q2994.8594,206.3906 2994.6719,206.2031 Q2994.3438,205.8281 2993.7344,205.6094 Q2993.125,205.3906 2992.5,205.3906 Q2991.7344,205.3906 2991.1016,205.7188 Q2990.4688,206.0469 2989.9766,206.7969 Q2989.4844,207.5469 2989.4844,208.5781 L2989.4844,209.6719 Q2989.4844,210.9063 2990.375,211.7266 Q2991.2656,212.5469 2992.8594,212.5469 Q2993.7969,212.5469 2994.4531,212.2969 Q2994.8438,212.1406 2995.2656,211.7031 Q2995.5313,211.4375 2995.6797,211.3594 Q2995.8281,211.2813 2996.0313,211.2813 Q2996.3594,211.2813 2996.6172,211.5391 Q2996.875,211.7969 2996.875,212.1406 Q2996.875,212.4844 2996.5313,212.8906 Q2996.0313,213.4688 2995.2344,213.7969 Q2994.1563,214.25 2992.8594,214.25 Q2991.3438,214.25 2990.1406,213.625 Q2989.1563,213.125 2988.4688,212.0547 Q2987.7813,210.9844 2987.7813,209.7031 L2987.7813,208.5469 Q2987.7813,207.2188 2988.3984,206.0703 Q2989.0156,204.9219 2990.1094,204.3047 Q2991.2031,203.6875 2992.4375,203.6875 Q2993.1719,203.6875 2993.8203,203.8516 Q2994.4688,204.0156 2995.0156,204.375 Z " fill="#000000"/><text fill="#000000" font-family="sans-serif" font-size="14" lengthAdjust="spacing" textLength="81" x="3012.75" y="214.2285">FilterOptions</text><line style="stroke:#181818;stroke-width:0.5;" x1="2938" x2="3136" y1="224.5" y2="224.5"/><ellipse cx="2948" cy="238.8047" fill="none" rx="3" ry="3" style="stroke:#038048;stroke-width:1.0;"/><text fill="#000000" font-family="sans-serif" font-size="14" lengthAdjust="spacing" textLength="57" x="2957" y="243.0332">int* index</text><ellipse cx="2948" cy="256.4141" fill="none" rx="3" ry="3" style="stroke:#038048;stroke-width:1.0;"/><text fill="#000000" font-family="sans-serif" font-size="14" lengthAdjust="spacing" text-decoration="underline" textLength="174" x="2957" y="260.6426">List&lt;FilterOptions*&gt;* values</text><ellipse cx="2948" cy="274.0234" fill="none" rx="3" ry="3" style="stroke:#038048;stroke-width:1.0;"/><text fill="#000000" font-family="sans-serif" font-size="14" lengthAdjust="spacing" text-decoration="underline" textLength="149" x="2957" y="278.252">FilterOptions* Favorites</text><ellipse cx="2948" cy="291.6328" fill="none" rx="3" ry="3" style="stroke:#038048;stroke-width:1.0;"/><text fill="#000000" font-family="sans-serif" font-size="14" lengthAdjust="spacing" text-decoration="underline" textLength="105" x="2957" y="295.8613">FilterOptions* All</text><line style="stroke:#181818;stroke-width:0.5;" x1="2938" x2="3136" y1="302.9375" y2="302.9375"/></g><!--MD5=[d6fa34c106194b2f1b35263c212eef4e]
class dart::core::Enum--><g id="elem_dart::core::Enum"><rect fill="#F1F1F1" height="48" id="dart::core::Enum" rx="2.5" ry="2.5" style="stroke:#181818;stroke-width:0.5;" width="68" x="3003" y="42"/><ellipse cx="3018" cy="58" fill="#ADD1B2" rx="11" ry="11" style="stroke:#181818;stroke-width:1.0;"/><path d="M3020.7656,53.875 Q3020.9219,53.6563 3021.1094,53.5469 Q3021.2969,53.4375 3021.5156,53.4375 Q3021.8906,53.4375 3022.125,53.6953 Q3022.3594,53.9531 3022.3594,54.5625 L3022.3594,56.0156 Q3022.3594,56.625 3022.125,56.8906 Q3021.8906,57.1563 3021.5156,57.1563 Q3021.1719,57.1563 3020.9688,56.9531 Q3020.7656,56.7656 3020.6563,56.25 Q3020.6094,55.8906 3020.4219,55.7031 Q3020.0938,55.3281 3019.4844,55.1094 Q3018.875,54.8906 3018.25,54.8906 Q3017.4844,54.8906 3016.8516,55.2188 Q3016.2188,55.5469 3015.7266,56.2969 Q3015.2344,57.0469 3015.2344,58.0781 L3015.2344,59.1719 Q3015.2344,60.4063 3016.125,61.2266 Q3017.0156,62.0469 3018.6094,62.0469 Q3019.5469,62.0469 3020.2031,61.7969 Q3020.5938,61.6406 3021.0156,61.2031 Q3021.2813,60.9375 3021.4297,60.8594 Q3021.5781,60.7813 3021.7813,60.7813 Q3022.1094,60.7813 3022.3672,61.0391 Q3022.625,61.2969 3022.625,61.6406 Q3022.625,61.9844 3022.2813,62.3906 Q3021.7813,62.9688 3020.9844,63.2969 Q3019.9063,63.75 3018.6094,63.75 Q3017.0938,63.75 3015.8906,63.125 Q3014.9063,62.625 3014.2188,61.5547 Q3013.5313,60.4844 3013.5313,59.2031 L3013.5313,58.0469 Q3013.5313,56.7188 3014.1484,55.5703 Q3014.7656,54.4219 3015.8594,53.8047 Q3016.9531,53.1875 3018.1875,53.1875 Q3018.9219,53.1875 3019.5703,53.3516 Q3020.2188,53.5156 3020.7656,53.875 Z " fill="#000000"/><text fill="#000000" font-family="sans-serif" font-size="14" lengthAdjust="spacing" textLength="36" x="3032" y="63.7285">Enum</text><line style="stroke:#181818;stroke-width:0.5;" x1="3004" x2="3070" y1="74" y2="74"/><line style="stroke:#181818;stroke-width:0.5;" x1="3004" x2="3070" y1="82" y2="82"/></g><!--MD5=[5ac57818de3bf059567b734eb1f85ab4]
class flutter_complete_guide::screens::product_detail_screen.dart::ProductDetailScreen--><g id="elem_flutter_complete_guide::screens::product_detail_screen.dart::ProductDetailScreen"><rect codeLine="78" fill="#F1F1F1" height="83.2188" id="flutter_complete_guide::screens::product_detail_screen.dart::ProductDetailScreen" rx="2.5" ry="2.5" style="stroke:#181818;stroke-width:0.5;" width="162" x="942" y="210"/><ellipse cx="957" cy="226" fill="#ADD1B2" rx="11" ry="11" style="stroke:#181818;stroke-width:1.0;"/><path d="M959.7656,221.875 Q959.9219,221.6563 960.1094,221.5469 Q960.2969,221.4375 960.5156,221.4375 Q960.8906,221.4375 961.125,221.6953 Q961.3594,221.9531 961.3594,222.5625 L961.3594,224.0156 Q961.3594,224.625 961.125,224.8906 Q960.8906,225.1563 960.5156,225.1563 Q960.1719,225.1563 959.9688,224.9531 Q959.7656,224.7656 959.6563,224.25 Q959.6094,223.8906 959.4219,223.7031 Q959.0938,223.3281 958.4844,223.1094 Q957.875,222.8906 957.25,222.8906 Q956.4844,222.8906 955.8516,223.2188 Q955.2188,223.5469 954.7266,224.2969 Q954.2344,225.0469 954.2344,226.0781 L954.2344,227.1719 Q954.2344,228.4063 955.125,229.2266 Q956.0156,230.0469 957.6094,230.0469 Q958.5469,230.0469 959.2031,229.7969 Q959.5938,229.6406 960.0156,229.2031 Q960.2813,228.9375 960.4297,228.8594 Q960.5781,228.7813 960.7813,228.7813 Q961.1094,228.7813 961.3672,229.0391 Q961.625,229.2969 961.625,229.6406 Q961.625,229.9844 961.2813,230.3906 Q960.7813,230.9688 959.9844,231.2969 Q958.9063,231.75 957.6094,231.75 Q956.0938,231.75 954.8906,231.125 Q953.9063,230.625 953.2188,229.5547 Q952.5313,228.4844 952.5313,227.2031 L952.5313,226.0469 Q952.5313,224.7188 953.1484,223.5703 Q953.7656,222.4219 954.8594,221.8047 Q955.9531,221.1875 957.1875,221.1875 Q957.9219,221.1875 958.5703,221.3516 Q959.2188,221.5156 959.7656,221.875 Z " fill="#000000"/><text fill="#000000" font-family="sans-serif" font-size="14" lengthAdjust="spacing" textLength="130" x="971" y="231.7285">ProductDetailScreen</text><line style="stroke:#181818;stroke-width:0.5;" x1="943" x2="1103" y1="242" y2="242"/><ellipse cx="953" cy="256.3047" fill="none" rx="3" ry="3" style="stroke:#038048;stroke-width:1.0;"/><text fill="#000000" font-family="sans-serif" font-size="14" lengthAdjust="spacing" text-decoration="underline" textLength="115" x="962" y="260.5332">String* routeName</text><line style="stroke:#181818;stroke-width:0.5;" x1="943" x2="1103" y1="267.6094" y2="267.6094"/><ellipse cx="953" cy="281.9141" fill="#84BE84" rx="3" ry="3" style="stroke:#038048;stroke-width:1.0;"/><text fill="#000000" font-family="sans-serif" font-size="14" lengthAdjust="spacing" textLength="93" x="962" y="286.1426">Widget* build()</text></g><!--MD5=[48d2fc841b228759d92e7851b339b269]
class flutter_complete_guide::widgets::badge.dart::Badge--><g id="elem_flutter_complete_guide::widgets::badge.dart::Badge"><rect codeLine="85" fill="#F1F1F1" height="118.4375" id="flutter_complete_guide::widgets::badge.dart::Badge" rx="2.5" ry="2.5" style="stroke:#181818;stroke-width:0.5;" width="119" x="1335.5" y="192.5"/><ellipse cx="1371.2" cy="208.5" fill="#ADD1B2" rx="11" ry="11" style="stroke:#181818;stroke-width:1.0;"/><path d="M1373.9656,204.375 Q1374.1219,204.1563 1374.3094,204.0469 Q1374.4969,203.9375 1374.7156,203.9375 Q1375.0906,203.9375 1375.325,204.1953 Q1375.5594,204.4531 1375.5594,205.0625 L1375.5594,206.5156 Q1375.5594,207.125 1375.325,207.3906 Q1375.0906,207.6563 1374.7156,207.6563 Q1374.3719,207.6563 1374.1688,207.4531 Q1373.9656,207.2656 1373.8563,206.75 Q1373.8094,206.3906 1373.6219,206.2031 Q1373.2938,205.8281 1372.6844,205.6094 Q1372.075,205.3906 1371.45,205.3906 Q1370.6844,205.3906 1370.0516,205.7188 Q1369.4188,206.0469 1368.9266,206.7969 Q1368.4344,207.5469 1368.4344,208.5781 L1368.4344,209.6719 Q1368.4344,210.9063 1369.325,211.7266 Q1370.2156,212.5469 1371.8094,212.5469 Q1372.7469,212.5469 1373.4031,212.2969 Q1373.7938,212.1406 1374.2156,211.7031 Q1374.4813,211.4375 1374.6297,211.3594 Q1374.7781,211.2813 1374.9813,211.2813 Q1375.3094,211.2813 1375.5672,211.5391 Q1375.825,211.7969 1375.825,212.1406 Q1375.825,212.4844 1375.4813,212.8906 Q1374.9813,213.4688 1374.1844,213.7969 Q1373.1063,214.25 1371.8094,214.25 Q1370.2938,214.25 1369.0906,213.625 Q1368.1063,213.125 1367.4188,212.0547 Q1366.7313,210.9844 1366.7313,209.7031 L1366.7313,208.5469 Q1366.7313,207.2188 1367.3484,206.0703 Q1367.9656,204.9219 1369.0594,204.3047 Q1370.1531,203.6875 1371.3875,203.6875 Q1372.1219,203.6875 1372.7703,203.8516 Q1373.4188,204.0156 1373.9656,204.375 Z " fill="#000000"/><text fill="#000000" font-family="sans-serif" font-size="14" lengthAdjust="spacing" textLength="41" x="1389.8" y="214.2285">Badge</text><line style="stroke:#181818;stroke-width:0.5;" x1="1336.5" x2="1453.5" y1="224.5" y2="224.5"/><ellipse cx="1346.5" cy="238.8047" fill="none" rx="3" ry="3" style="stroke:#038048;stroke-width:1.0;"/><text fill="#000000" font-family="sans-serif" font-size="14" lengthAdjust="spacing" textLength="82" x="1355.5" y="243.0332">Widget* child</text><ellipse cx="1346.5" cy="256.4141" fill="none" rx="3" ry="3" style="stroke:#038048;stroke-width:1.0;"/><text fill="#000000" font-family="sans-serif" font-size="14" lengthAdjust="spacing" textLength="80" x="1355.5" y="260.6426">String* value</text><ellipse cx="1346.5" cy="274.0234" fill="none" rx="3" ry="3" style="stroke:#038048;stroke-width:1.0;"/><text fill="#000000" font-family="sans-serif" font-size="14" lengthAdjust="spacing" textLength="74" x="1355.5" y="278.252">Color* color</text><line style="stroke:#181818;stroke-width:0.5;" x1="1336.5" x2="1453.5" y1="285.3281" y2="285.3281"/><ellipse cx="1346.5" cy="299.6328" fill="#84BE84" rx="3" ry="3" style="stroke:#038048;stroke-width:1.0;"/><text fill="#000000" font-family="sans-serif" font-size="14" lengthAdjust="spacing" textLength="93" x="1355.5" y="303.8613">Widget* build()</text></g><!--MD5=[7ee8008bd02dd47c47fead127d6fe347]
class dart::ui::Color--><g id="elem_dart::ui::Color"><rect fill="#F1F1F1" height="48" id="dart::ui::Color" rx="2.5" ry="2.5" style="stroke:#181818;stroke-width:0.5;" width="66" x="1362" y="413"/><ellipse cx="1377" cy="429" fill="#ADD1B2" rx="11" ry="11" style="stroke:#181818;stroke-width:1.0;"/><path d="M1379.7656,424.875 Q1379.9219,424.6563 1380.1094,424.5469 Q1380.2969,424.4375 1380.5156,424.4375 Q1380.8906,424.4375 1381.125,424.6953 Q1381.3594,424.9531 1381.3594,425.5625 L1381.3594,427.0156 Q1381.3594,427.625 1381.125,427.8906 Q1380.8906,428.1563 1380.5156,428.1563 Q1380.1719,428.1563 1379.9688,427.9531 Q1379.7656,427.7656 1379.6563,427.25 Q1379.6094,426.8906 1379.4219,426.7031 Q1379.0938,426.3281 1378.4844,426.1094 Q1377.875,425.8906 1377.25,425.8906 Q1376.4844,425.8906 1375.8516,426.2188 Q1375.2188,426.5469 1374.7266,427.2969 Q1374.2344,428.0469 1374.2344,429.0781 L1374.2344,430.1719 Q1374.2344,431.4063 1375.125,432.2266 Q1376.0156,433.0469 1377.6094,433.0469 Q1378.5469,433.0469 1379.2031,432.7969 Q1379.5938,432.6406 1380.0156,432.2031 Q1380.2813,431.9375 1380.4297,431.8594 Q1380.5781,431.7813 1380.7813,431.7813 Q1381.1094,431.7813 1381.3672,432.0391 Q1381.625,432.2969 1381.625,432.6406 Q1381.625,432.9844 1381.2813,433.3906 Q1380.7813,433.9688 1379.9844,434.2969 Q1378.9063,434.75 1377.6094,434.75 Q1376.0938,434.75 1374.8906,434.125 Q1373.9063,433.625 1373.2188,432.5547 Q1372.5313,431.4844 1372.5313,430.2031 L1372.5313,429.0469 Q1372.5313,427.7188 1373.1484,426.5703 Q1373.7656,425.4219 1374.8594,424.8047 Q1375.9531,424.1875 1377.1875,424.1875 Q1377.9219,424.1875 1378.5703,424.3516 Q1379.2188,424.5156 1379.7656,424.875 Z " fill="#000000"/><text fill="#000000" font-family="sans-serif" font-size="14" lengthAdjust="spacing" textLength="34" x="1391" y="434.7285">Color</text><line style="stroke:#181818;stroke-width:0.5;" x1="1363" x2="1427" y1="445" y2="445"/><line style="stroke:#181818;stroke-width:0.5;" x1="1363" x2="1427" y1="453" y2="453"/></g><!--MD5=[8f9601596acd896f0d59f8f6661281e4]
class flutter_complete_guide::widgets::products_grid.dart::ProductsGrid--><g id="elem_flutter_complete_guide::widgets::products_grid.dart::ProductsGrid"><rect codeLine="96" fill="#F1F1F1" height="83.2188" id="flutter_complete_guide::widgets::products_grid.dart::ProductsGrid" rx="2.5" ry="2.5" style="stroke:#181818;stroke-width:0.5;" width="125" x="1511.5" y="210"/><ellipse cx="1531" cy="226" fill="#ADD1B2" rx="11" ry="11" style="stroke:#181818;stroke-width:1.0;"/><path d="M1533.7656,221.875 Q1533.9219,221.6563 1534.1094,221.5469 Q1534.2969,221.4375 1534.5156,221.4375 Q1534.8906,221.4375 1535.125,221.6953 Q1535.3594,221.9531 1535.3594,222.5625 L1535.3594,224.0156 Q1535.3594,224.625 1535.125,224.8906 Q1534.8906,225.1563 1534.5156,225.1563 Q1534.1719,225.1563 1533.9688,224.9531 Q1533.7656,224.7656 1533.6563,224.25 Q1533.6094,223.8906 1533.4219,223.7031 Q1533.0938,223.3281 1532.4844,223.1094 Q1531.875,222.8906 1531.25,222.8906 Q1530.4844,222.8906 1529.8516,223.2188 Q1529.2188,223.5469 1528.7266,224.2969 Q1528.2344,225.0469 1528.2344,226.0781 L1528.2344,227.1719 Q1528.2344,228.4063 1529.125,229.2266 Q1530.0156,230.0469 1531.6094,230.0469 Q1532.5469,230.0469 1533.2031,229.7969 Q1533.5938,229.6406 1534.0156,229.2031 Q1534.2813,228.9375 1534.4297,228.8594 Q1534.5781,228.7813 1534.7813,228.7813 Q1535.1094,228.7813 1535.3672,229.0391 Q1535.625,229.2969 1535.625,229.6406 Q1535.625,229.9844 1535.2813,230.3906 Q1534.7813,230.9688 1533.9844,231.2969 Q1532.9063,231.75 1531.6094,231.75 Q1530.0938,231.75 1528.8906,231.125 Q1527.9063,230.625 1527.2188,229.5547 Q1526.5313,228.4844 1526.5313,227.2031 L1526.5313,226.0469 Q1526.5313,224.7188 1527.1484,223.5703 Q1527.7656,222.4219 1528.8594,221.8047 Q1529.9531,221.1875 1531.1875,221.1875 Q1531.9219,221.1875 1532.5703,221.3516 Q1533.2188,221.5156 1533.7656,221.875 Z " fill="#000000"/><text fill="#000000" font-family="sans-serif" font-size="14" lengthAdjust="spacing" textLength="83" x="1546" y="231.7285">ProductsGrid</text><line style="stroke:#181818;stroke-width:0.5;" x1="1512.5" x2="1635.5" y1="242" y2="242"/><ellipse cx="1522.5" cy="256.3047" fill="none" rx="3" ry="3" style="stroke:#038048;stroke-width:1.0;"/><text fill="#000000" font-family="sans-serif" font-size="14" lengthAdjust="spacing" textLength="99" x="1531.5" y="260.5332">bool* showFavs</text><line style="stroke:#181818;stroke-width:0.5;" x1="1512.5" x2="1635.5" y1="267.6094" y2="267.6094"/><ellipse cx="1522.5" cy="281.9141" fill="#84BE84" rx="3" ry="3" style="stroke:#038048;stroke-width:1.0;"/><text fill="#000000" font-family="sans-serif" font-size="14" lengthAdjust="spacing" textLength="93" x="1531.5" y="286.1426">Widget* build()</text></g><!--MD5=[6a4b5c929d9816019cdfcc5795dcb3e6]
class flutter_complete_guide::widgets::product_item.dart::ProductItem--><g id="elem_flutter_complete_guide::widgets::product_item.dart::ProductItem"><rect codeLine="103" fill="#F1F1F1" height="65.6094" id="flutter_complete_guide::widgets::product_item.dart::ProductItem" rx="2.5" ry="2.5" style="stroke:#181818;stroke-width:0.5;" width="119" x="1917.5" y="218.5"/><ellipse cx="1937.9" cy="234.5" fill="#ADD1B2" rx="11" ry="11" style="stroke:#181818;stroke-width:1.0;"/><path d="M1940.6656,230.375 Q1940.8219,230.1563 1941.0094,230.0469 Q1941.1969,229.9375 1941.4156,229.9375 Q1941.7906,229.9375 1942.025,230.1953 Q1942.2594,230.4531 1942.2594,231.0625 L1942.2594,232.5156 Q1942.2594,233.125 1942.025,233.3906 Q1941.7906,233.6563 1941.4156,233.6563 Q1941.0719,233.6563 1940.8688,233.4531 Q1940.6656,233.2656 1940.5563,232.75 Q1940.5094,232.3906 1940.3219,232.2031 Q1939.9938,231.8281 1939.3844,231.6094 Q1938.775,231.3906 1938.15,231.3906 Q1937.3844,231.3906 1936.7516,231.7188 Q1936.1188,232.0469 1935.6266,232.7969 Q1935.1344,233.5469 1935.1344,234.5781 L1935.1344,235.6719 Q1935.1344,236.9063 1936.025,237.7266 Q1936.9156,238.5469 1938.5094,238.5469 Q1939.4469,238.5469 1940.1031,238.2969 Q1940.4938,238.1406 1940.9156,237.7031 Q1941.1813,237.4375 1941.3297,237.3594 Q1941.4781,237.2813 1941.6813,237.2813 Q1942.0094,237.2813 1942.2672,237.5391 Q1942.525,237.7969 1942.525,238.1406 Q1942.525,238.4844 1942.1813,238.8906 Q1941.6813,239.4688 1940.8844,239.7969 Q1939.8063,240.25 1938.5094,240.25 Q1936.9938,240.25 1935.7906,239.625 Q1934.8063,239.125 1934.1188,238.0547 Q1933.4313,236.9844 1933.4313,235.7031 L1933.4313,234.5469 Q1933.4313,233.2188 1934.0484,232.0703 Q1934.6656,230.9219 1935.7594,230.3047 Q1936.8531,229.6875 1938.0875,229.6875 Q1938.8219,229.6875 1939.4703,229.8516 Q1940.1188,230.0156 1940.6656,230.375 Z " fill="#000000"/><text fill="#000000" font-family="sans-serif" font-size="14" lengthAdjust="spacing" textLength="75" x="1953.1" y="240.2285">ProductItem</text><line style="stroke:#181818;stroke-width:0.5;" x1="1918.5" x2="2035.5" y1="250.5" y2="250.5"/><line style="stroke:#181818;stroke-width:0.5;" x1="1918.5" x2="2035.5" y1="258.5" y2="258.5"/><ellipse cx="1928.5" cy="272.8047" fill="#84BE84" rx="3" ry="3" style="stroke:#038048;stroke-width:1.0;"/><text fill="#000000" font-family="sans-serif" font-size="14" lengthAdjust="spacing" textLength="93" x="1937.5" y="277.0332">Widget* build()</text></g><!--MD5=[9da65fef4b62b6cc0c7a3c7fb8ff36a4]
reverse link flutter::src::widgets::framework.dart::StatelessWidget to flutter_complete_guide::main.dart::MyApp--><g id="link_flutter::src::widgets::framework.dart::StatelessWidget_flutter_complete_guide::main.dart::MyApp"><path codeLine="7" d="M1307.52,68.35 C1109.85,72.05 633.8,84.64 478,122 C391.22,142.81 297.87,187.69 239.94,218.49 " fill="none" id="flutter::src::widgets::framework.dart::StatelessWidget-backto-flutter_complete_guide::main.dart::MyApp" style="stroke:#181818;stroke-width:1.0;"/><polygon fill="none" points="1307.59,61.35,1327.72,67.99,1307.85,75.35,1307.59,61.35" style="stroke:#181818;stroke-width:1.0;"/></g><!--MD5=[d7106eb1e6c6ebc848ad595d42d76e8b]
reverse link flutter::src::foundation::change_notifier.dart::ChangeNotifier to flutter_complete_guide::providers::cart.dart::Cart--><g id="link_flutter::src::foundation::change_notifier.dart::ChangeNotifier_flutter_complete_guide::providers::cart.dart::Cart"><path codeLine="24" d="M3715.93,74.48 C3629.37,83.3 3500.3,99.64 3456,122 C3426.85,136.71 3400.04,160.24 3378.37,183.17 " fill="none" id="flutter::src::foundation::change_notifier.dart::ChangeNotifier-backto-flutter_complete_guide::providers::cart.dart::Cart" style="stroke:#181818;stroke-width:1.0;"/><polygon fill="none" points="3715.27,67.51,3735.86,72.51,3716.65,81.44,3715.27,67.51" style="stroke:#181818;stroke-width:1.0;"/></g><!--MD5=[b9123f2c648688f156be04822c33f2d4]
reverse link flutter::src::foundation::change_notifier.dart::ChangeNotifier to flutter_complete_guide::providers::product.dart::Product--><g id="link_flutter::src::foundation::change_notifier.dart::ChangeNotifier_flutter_complete_guide::providers::product.dart::Product"><path codeLine="36" d="M3799,110.48 C3799,127.14 3799,146.77 3799,165.98 " fill="none" id="flutter::src::foundation::change_notifier.dart::ChangeNotifier-backto-flutter_complete_guide::providers::product.dart::Product" style="stroke:#181818;stroke-width:1.0;"/><polygon fill="none" points="3792,110.24,3799,90.24,3806,110.24,3792,110.24" style="stroke:#181818;stroke-width:1.0;"/></g><!--MD5=[9ebc405d0af8837419b976dd5c8ab403]
reverse link flutter::src::foundation::change_notifier.dart::ChangeNotifier to flutter_complete_guide::providers::products.dart::Products--><g id="link_flutter::src::foundation::change_notifier.dart::ChangeNotifier_flutter_complete_guide::providers::products.dart::Products"><path codeLine="46" d="M3868.36,98.6 C3883.56,105.96 3899.46,114 3914,122 C3948.23,140.83 3984.64,162.94 4017.13,183.46 " fill="none" id="flutter::src::foundation::change_notifier.dart::ChangeNotifier-backto-flutter_complete_guide::providers::products.dart::Products" style="stroke:#181818;stroke-width:1.0;"/><polygon fill="none" points="3865.35,104.92,3850.29,90.01,3871.36,92.28,3865.35,104.92" style="stroke:#181818;stroke-width:1.0;"/></g><!--MD5=[ae5b80095421572ad5a0b6a15e8df114]
reverse link flutter::src::widgets::framework.dart::StatelessWidget to flutter_complete_guide::screens::cart_screen.dart::CartScreen--><g id="link_flutter::src::widgets::framework.dart::StatelessWidget_flutter_complete_guide::screens::cart_screen.dart::CartScreen"><path codeLine="53" d="M1307.6,71.36 C1212.64,77.45 1056.95,91.43 926,122 C822.51,146.16 707.6,190.21 635.83,219.91 " fill="none" id="flutter::src::widgets::framework.dart::StatelessWidget-backto-flutter_complete_guide::screens::cart_screen.dart::CartScreen" style="stroke:#181818;stroke-width:1.0;"/><polygon fill="none" points="1307.39,64.36,1327.78,70.12,1308.24,78.33,1307.39,64.36" style="stroke:#181818;stroke-width:1.0;"/></g><!--MD5=[4200facf0083ea48a6d6db8dcb705e2e]
reverse link flutter::src::widgets::framework.dart::StatefulWidget to flutter_complete_guide::screens::products_overview_screen.dart::ProductOverviewScreen--><g id="link_flutter::src::widgets::framework.dart::StatefulWidget_flutter_complete_guide::screens::products_overview_screen.dart::ProductOverviewScreen"><path codeLine="59" d="M1853.3,67.11 C2028.28,68.24 2431.78,75.95 2560,122 C2617.64,142.7 2673.33,187.49 2707.12,218.31 " fill="none" id="flutter::src::widgets::framework.dart::StatefulWidget-backto-flutter_complete_guide::screens::products_overview_screen.dart::ProductOverviewScreen" style="stroke:#181818;stroke-width:1.0;"/><polygon fill="none" points="1853.09,74.11,1833.12,67,1853.16,60.11,1853.09,74.11" style="stroke:#181818;stroke-width:1.0;"/></g><!--MD5=[2694973d4b1f6907920a8c668ae364b8]
reverse link flutter::src::widgets::framework.dart::State to flutter_complete_guide::screens::products_overview_screen.dart::_ProductOverviewScreenState--><g id="link_flutter::src::widgets::framework.dart::State_flutter_complete_guide::screens::products_overview_screen.dart::_ProductOverviewScreenState"><path codeLine="66" d="M1674.3,103.62 C1679.79,107.81 1685.75,111.48 1692,114 C1729.21,129.01 2013.49,115 2053,122 C2152.92,139.7 2262.17,179.33 2337.22,209.94 " fill="none" id="flutter::src::widgets::framework.dart::State-backto-flutter_complete_guide::screens::products_overview_screen.dart::_ProductOverviewScreenState" style="stroke:#181818;stroke-width:1.0;"/><polygon fill="none" points="1669.5,108.72,1659.38,90.1,1678.9,98.35,1669.5,108.72" style="stroke:#181818;stroke-width:1.0;"/></g><!--MD5=[4a16d65ce22f186225f03b7d86b7c80f]
reverse link flutter_complete_guide::screens::products_overview_screen.dart::FilterOptions to flutter_complete_guide::screens::products_overview_screen.dart::FilterOptions--><g id="link_flutter_complete_guide::screens::products_overview_screen.dart::FilterOptions_flutter_complete_guide::screens::products_overview_screen.dart::FilterOptions"><path codeLine="75" d="M3149.92,221.92 C3163.28,227.33 3172,237.19 3172,251.5 C3172,270.01 3157.43,281.07 3137.09,284.68 " fill="none" id="flutter_complete_guide::screens::products_overview_screen.dart::FilterOptions-backto-flutter_complete_guide::screens::products_overview_screen.dart::FilterOptions" style="stroke:#181818;stroke-width:1.0;"/><polygon fill="none" points="3137.09,218.32,3141.7851,223.7932,3148.6431,221.5644,3143.948,216.0911,3137.09,218.32" style="stroke:#181818;stroke-width:1.0;"/></g><!--MD5=[5103bd1fa754f5c46cd84338084b6b9b]
reverse link dart::core::Enum to flutter_complete_guide::screens::products_overview_screen.dart::FilterOptions--><g id="link_dart::core::Enum_flutter_complete_guide::screens::products_overview_screen.dart::FilterOptions"><path codeLine="76" d="M3037,110.24 C3037,134.78 3037,165.81 3037,192.44 " fill="none" id="dart::core::Enum-backto-flutter_complete_guide::screens::products_overview_screen.dart::FilterOptions" style="stroke:#181818;stroke-width:1.0;"/><polygon fill="none" points="3030,110.24,3037,90.24,3044,110.24,3030,110.24" style="stroke:#181818;stroke-width:1.0;"/></g><!--MD5=[57e3eb8e669862ba180ace01bda43d16]
reverse link flutter::src::widgets::framework.dart::StatelessWidget to flutter_complete_guide::screens::product_detail_screen.dart::ProductDetailScreen--><g id="link_flutter::src::widgets::framework.dart::StatelessWidget_flutter_complete_guide::screens::product_detail_screen.dart::ProductDetailScreen"><path codeLine="83" d="M1330.29,98.92 C1267.5,129.89 1172.02,176.99 1104.17,210.46 " fill="none" id="flutter::src::widgets::framework.dart::StatelessWidget-backto-flutter_complete_guide::screens::product_detail_screen.dart::ProductDetailScreen" style="stroke:#181818;stroke-width:1.0;"/><polygon fill="none" points="1327.23,92.62,1348.26,90.05,1333.42,105.18,1327.23,92.62" style="stroke:#181818;stroke-width:1.0;"/></g><!--MD5=[2373e0d69eb2fc8ae0a93ec89b862b20]
reverse link flutter_complete_guide::widgets::badge.dart::Badge to flutter::src::widgets::framework.dart::Widget--><g id="link_flutter_complete_guide::widgets::badge.dart::Badge_flutter::src::widgets::framework.dart::Widget"><path codeLine="92" d="M1447.5,181.69 C1472.09,149.46 1499.75,113.2 1517.27,90.24 " fill="none" id="flutter_complete_guide::widgets::badge.dart::Badge-backto-flutter::src::widgets::framework.dart::Widget" style="stroke:#181818;stroke-width:1.0;"/><polygon fill="none" points="1439.3,192.44,1446.1203,190.0984,1446.5821,182.9021,1439.7617,185.2437,1439.3,192.44" style="stroke:#181818;stroke-width:1.0;"/></g><!--MD5=[e5db0d619a06dfbfdfd31e136cd704e7]
reverse link flutter_complete_guide::widgets::badge.dart::Badge to dart::ui::Color--><g id="link_flutter_complete_guide::widgets::badge.dart::Badge_dart::ui::Color"><path codeLine="93" d="M1395,323.86 C1395,355.48 1395,390.5 1395,412.85 " fill="none" id="flutter_complete_guide::widgets::badge.dart::Badge-backto-dart::ui::Color" style="stroke:#181818;stroke-width:1.0;"/><polygon fill="none" points="1395,310.56,1391,316.56,1395,322.56,1399,316.56,1395,310.56" style="stroke:#181818;stroke-width:1.0;"/></g><!--MD5=[28f420de0ab27fd1c286afa2c37d56b8]
reverse link flutter::src::widgets::framework.dart::StatelessWidget to flutter_complete_guide::widgets::badge.dart::Badge--><g id="link_flutter::src::widgets::framework.dart::StatelessWidget_flutter_complete_guide::widgets::badge.dart::Badge"><path codeLine="94" d="M1395,110.24 C1395,134.78 1395,165.81 1395,192.44 " fill="none" id="flutter::src::widgets::framework.dart::StatelessWidget-backto-flutter_complete_guide::widgets::badge.dart::Badge" style="stroke:#181818;stroke-width:1.0;"/><polygon fill="none" points="1388,110.24,1395,90.24,1402,110.24,1388,110.24" style="stroke:#181818;stroke-width:1.0;"/></g><!--MD5=[f202463c29052d96d7a944c26c3a1f17]
reverse link flutter::src::widgets::framework.dart::StatelessWidget to flutter_complete_guide::widgets::products_grid.dart::ProductsGrid--><g id="link_flutter::src::widgets::framework.dart::StatelessWidget_flutter_complete_guide::widgets::products_grid.dart::ProductsGrid"><path codeLine="101" d="M1447.2,101.9 C1455.47,108.23 1463.69,115.04 1471,122 C1499.16,148.81 1526.47,183.4 1545.89,209.94 " fill="none" id="flutter::src::widgets::framework.dart::StatelessWidget-backto-flutter_complete_guide::widgets::products_grid.dart::ProductsGrid" style="stroke:#181818;stroke-width:1.0;"/><polygon fill="none" points="1443,107.5,1430.97,90.06,1451.25,96.19,1443,107.5" style="stroke:#181818;stroke-width:1.0;"/></g><!--MD5=[b6730b12dd69c6a3e1d583c0b5a50fc6]
reverse link flutter::src::widgets::framework.dart::StatelessWidget to flutter_complete_guide::widgets::product_item.dart::ProductItem--><g id="link_flutter::src::widgets::framework.dart::StatelessWidget_flutter_complete_guide::widgets::product_item.dart::ProductItem"><path codeLine="107" d="M1445.62,99.88 C1456.56,105.57 1468.36,110.71 1480,114 C1554.07,134.95 1577.75,105.81 1653,122 C1749.13,142.68 1853.77,188.88 1917.38,219.87 " fill="none" id="flutter::src::widgets::framework.dart::StatelessWidget-backto-flutter_complete_guide::widgets::product_item.dart::ProductItem" style="stroke:#181818;stroke-width:1.0;"/><polygon fill="none" points="1442.13,105.95,1428.18,90,1449.03,93.76,1442.13,105.95" style="stroke:#181818;stroke-width:1.0;"/></g><!--MD5=[c8d98a09271fe7e44f995b079947322d]
@startuml shop_app
set namespaceSeparator ::

class "flutter_complete_guide::main.dart::MyApp" {
  +Widget* build()
}

"flutter::src::widgets::framework.dart::StatelessWidget" <|- - "flutter_complete_guide::main.dart::MyApp"

class "flutter_complete_guide::providers::cart.dart::CartItem" {
  +String* id
  +String* title
  +int* quantity
  +double* price
}

class "flutter_complete_guide::providers::cart.dart::Cart" {
  -Map<String*, CartItem*>* _items
  +Map<String*, CartItem*>* items
  +int* itemCount
  +double* totalAmount
  +void addItem()
}

"flutter::src::foundation::change_notifier.dart::ChangeNotifier" <|- - "flutter_complete_guide::providers::cart.dart::Cart"

class "flutter_complete_guide::providers::product.dart::Product" {
  +String* id
  +String* title
  +String* description
  +double* price
  +String* imageUrl
  +bool* isFavorite
  +void toogleFavoriteStatus()
}

"flutter::src::foundation::change_notifier.dart::ChangeNotifier" <|- - "flutter_complete_guide::providers::product.dart::Product"

class "flutter_complete_guide::providers::products.dart::Products" {
  -List<Product*>* _items
  +List<Product*>* items
  +List<Product*>* favoriteItems
  +Product* findById()
  +void addProduct()
}

"flutter::src::foundation::change_notifier.dart::ChangeNotifier" <|- - "flutter_complete_guide::providers::products.dart::Products"

class "flutter_complete_guide::screens::cart_screen.dart::CartScreen" {
  {static} +String* routeName
  +Widget* build()
}

"flutter::src::widgets::framework.dart::StatelessWidget" <|- - "flutter_complete_guide::screens::cart_screen.dart::CartScreen"

class "flutter_complete_guide::screens::products_overview_screen.dart::ProductOverviewScreen" {
  +State<ProductOverviewScreen*>* createState()
}

"flutter::src::widgets::framework.dart::StatefulWidget" <|- - "flutter_complete_guide::screens::products_overview_screen.dart::ProductOverviewScreen"

class "flutter_complete_guide::screens::products_overview_screen.dart::_ProductOverviewScreenState" {
  -bool* _showOnlyFavorites
  +Widget* build()
}

"flutter::src::widgets::framework.dart::State" <|- - "flutter_complete_guide::screens::products_overview_screen.dart::_ProductOverviewScreenState"

class "flutter_complete_guide::screens::products_overview_screen.dart::FilterOptions" {
  +int* index
  {static} +List<FilterOptions*>* values
  {static} +FilterOptions* Favorites
  {static} +FilterOptions* All
}

"flutter_complete_guide::screens::products_overview_screen.dart::FilterOptions" o- - "flutter_complete_guide::screens::products_overview_screen.dart::FilterOptions"
"dart::core::Enum" <|- - "flutter_complete_guide::screens::products_overview_screen.dart::FilterOptions"

class "flutter_complete_guide::screens::product_detail_screen.dart::ProductDetailScreen" {
  {static} +String* routeName
  +Widget* build()
}

"flutter::src::widgets::framework.dart::StatelessWidget" <|- - "flutter_complete_guide::screens::product_detail_screen.dart::ProductDetailScreen"

class "flutter_complete_guide::widgets::badge.dart::Badge" {
  +Widget* child
  +String* value
  +Color* color
  +Widget* build()
}

"flutter_complete_guide::widgets::badge.dart::Badge" o- - "flutter::src::widgets::framework.dart::Widget"
"flutter_complete_guide::widgets::badge.dart::Badge" o- - "dart::ui::Color"
"flutter::src::widgets::framework.dart::StatelessWidget" <|- - "flutter_complete_guide::widgets::badge.dart::Badge"

class "flutter_complete_guide::widgets::products_grid.dart::ProductsGrid" {
  +bool* showFavs
  +Widget* build()
}

"flutter::src::widgets::framework.dart::StatelessWidget" <|- - "flutter_complete_guide::widgets::products_grid.dart::ProductsGrid"

class "flutter_complete_guide::widgets::product_item.dart::ProductItem" {
  +Widget* build()
}

"flutter::src::widgets::framework.dart::StatelessWidget" <|- - "flutter_complete_guide::widgets::product_item.dart::ProductItem"


@enduml

PlantUML version 1.2022.7(Mon Aug 22 19:01:30 CEST 2022)
(GPL source distribution)
Java Runtime: Java(TM) SE Runtime Environment
JVM: Java HotSpot(TM) 64-Bit Server VM
Default Encoding: Cp1250
Language: en
Country: US
--></g></svg>